<svg width="866" height="560" viewBox="0 0 866 560" fill="none" xmlns="http://www.w3.org/2000/svg">
<path d="M452.5 364.5C452.5 358.149 457.649 353 464 353H653C659.351 353 664.5 358.149 664.5 364.5V372.5C664.5 378.851 659.351 384 653 384H464C457.649 384 452.5 378.851 452.5 372.5V364.5Z" fill="url(#paint0_linear_1475_2620)"/>
<path d="M452.5 364.5C452.5 358.149 457.649 353 464 353H653C659.351 353 664.5 358.149 664.5 364.5V372.5C664.5 378.851 659.351 384 653 384H464C457.649 384 452.5 378.851 452.5 372.5V364.5Z" stroke="url(#paint1_linear_1475_2620)"/>
<path d="M466.276 363.773V372.5H464.959V363.773H466.276ZM469.186 363.773V364.591C469.186 364.832 469.141 365.087 469.05 365.354C468.962 365.618 468.837 365.872 468.675 366.116C468.513 366.361 468.322 366.571 468.104 366.747L467.473 366.295C467.641 366.051 467.786 365.791 467.908 365.516C468.033 365.24 468.095 364.936 468.095 364.604V363.773H469.186ZM471.756 363.773V372.5H470.482V363.773H471.756ZM474.744 363.773V372.5H473.47V363.773H474.744ZM479.634 374.955V365.955H480.878V367.016H480.985C481.059 366.879 481.165 366.722 481.304 366.543C481.444 366.364 481.637 366.207 481.884 366.074C482.131 365.938 482.458 365.869 482.864 365.869C483.392 365.869 483.864 366.003 484.279 366.27C484.694 366.537 485.019 366.922 485.255 367.425C485.493 367.928 485.613 368.533 485.613 369.24C485.613 369.947 485.495 370.554 485.259 371.06C485.023 371.562 484.699 371.95 484.287 372.223C483.875 372.493 483.405 372.628 482.877 372.628C482.479 372.628 482.154 372.561 481.901 372.428C481.651 372.294 481.455 372.138 481.313 371.959C481.171 371.78 481.061 371.621 480.985 371.482H480.908V374.955H479.634ZM480.882 369.227C480.882 369.687 480.949 370.091 481.083 370.438C481.216 370.784 481.409 371.055 481.662 371.251C481.915 371.445 482.225 371.541 482.591 371.541C482.972 371.541 483.29 371.44 483.546 371.239C483.801 371.034 483.995 370.757 484.125 370.408C484.259 370.058 484.326 369.665 484.326 369.227C484.326 368.795 484.26 368.408 484.13 368.064C484.002 367.72 483.809 367.449 483.55 367.25C483.294 367.051 482.975 366.952 482.591 366.952C482.222 366.952 481.909 367.047 481.654 367.237C481.401 367.428 481.209 367.693 481.078 368.034C480.948 368.375 480.882 368.773 480.882 369.227ZM491.186 369.786V365.955H492.465V372.5H491.212V371.366H491.144C490.993 371.716 490.752 372.007 490.419 372.24C490.09 372.47 489.679 372.585 489.188 372.585C488.767 372.585 488.395 372.493 488.071 372.308C487.75 372.121 487.498 371.844 487.313 371.477C487.131 371.111 487.04 370.658 487.04 370.118V365.955H488.314V369.964C488.314 370.411 488.438 370.766 488.685 371.03C488.932 371.294 489.253 371.426 489.648 371.426C489.887 371.426 490.124 371.366 490.36 371.247C490.598 371.128 490.796 370.947 490.952 370.706C491.111 370.464 491.189 370.158 491.186 369.786ZM499.082 367.553L497.927 367.757C497.879 367.609 497.802 367.469 497.697 367.335C497.594 367.202 497.455 367.092 497.279 367.007C497.103 366.922 496.883 366.879 496.619 366.879C496.258 366.879 495.957 366.96 495.715 367.122C495.474 367.281 495.353 367.487 495.353 367.74C495.353 367.959 495.434 368.135 495.596 368.268C495.758 368.402 496.019 368.511 496.38 368.597L497.42 368.835C498.022 368.974 498.471 369.189 498.766 369.479C499.062 369.768 499.21 370.145 499.21 370.608C499.21 371 499.096 371.349 498.869 371.656C498.644 371.96 498.33 372.199 497.927 372.372C497.526 372.545 497.062 372.632 496.533 372.632C495.8 372.632 495.202 372.476 494.739 372.163C494.276 371.848 493.992 371.401 493.887 370.821L495.119 370.634C495.195 370.955 495.353 371.197 495.592 371.362C495.83 371.524 496.141 371.605 496.525 371.605C496.942 371.605 497.276 371.518 497.526 371.345C497.776 371.169 497.901 370.955 497.901 370.702C497.901 370.497 497.825 370.325 497.671 370.186C497.521 370.047 497.289 369.942 496.977 369.871L495.869 369.628C495.258 369.489 494.806 369.267 494.513 368.963C494.224 368.659 494.079 368.274 494.079 367.808C494.079 367.422 494.187 367.084 494.403 366.794C494.619 366.504 494.917 366.278 495.298 366.116C495.678 365.952 496.114 365.869 496.606 365.869C497.313 365.869 497.87 366.023 498.276 366.33C498.683 366.634 498.951 367.041 499.082 367.553ZM501.885 368.614V372.5H500.61V363.773H501.868V367.02H501.949C502.102 366.668 502.336 366.388 502.652 366.18C502.967 365.973 503.379 365.869 503.887 365.869C504.336 365.869 504.728 365.962 505.064 366.146C505.402 366.331 505.663 366.607 505.848 366.973C506.035 367.337 506.129 367.791 506.129 368.337V372.5H504.855V368.49C504.855 368.01 504.731 367.638 504.484 367.374C504.237 367.107 503.893 366.973 503.453 366.973C503.152 366.973 502.882 367.037 502.643 367.165C502.407 367.293 502.221 367.48 502.085 367.727C501.951 367.972 501.885 368.267 501.885 368.614ZM514.06 365.955V366.977H510.485V365.955H514.06ZM511.444 364.386H512.718V370.578C512.718 370.825 512.755 371.011 512.829 371.136C512.903 371.259 512.998 371.342 513.114 371.388C513.234 371.43 513.363 371.452 513.502 371.452C513.604 371.452 513.694 371.445 513.771 371.43C513.847 371.416 513.907 371.405 513.95 371.396L514.18 372.449C514.106 372.477 514.001 372.506 513.864 372.534C513.728 372.565 513.558 372.582 513.353 372.585C513.018 372.591 512.705 372.531 512.415 372.406C512.126 372.281 511.891 372.088 511.712 371.827C511.533 371.565 511.444 371.237 511.444 370.842V364.386ZM516.885 368.614V372.5H515.61V363.773H516.868V367.02H516.949C517.102 366.668 517.336 366.388 517.652 366.18C517.967 365.973 518.379 365.869 518.887 365.869C519.336 365.869 519.728 365.962 520.064 366.146C520.402 366.331 520.663 366.607 520.848 366.973C521.035 367.337 521.129 367.791 521.129 368.337V372.5H519.855V368.49C519.855 368.01 519.731 367.638 519.484 367.374C519.237 367.107 518.893 366.973 518.453 366.973C518.152 366.973 517.882 367.037 517.643 367.165C517.407 367.293 517.221 367.48 517.085 367.727C516.951 367.972 516.885 368.267 516.885 368.614ZM525.65 372.632C525.005 372.632 524.45 372.494 523.984 372.219C523.521 371.94 523.163 371.55 522.91 371.047C522.66 370.541 522.535 369.949 522.535 369.27C522.535 368.599 522.66 368.009 522.91 367.497C523.163 366.986 523.515 366.587 523.967 366.3C524.422 366.013 524.953 365.869 525.561 365.869C525.93 365.869 526.288 365.93 526.635 366.053C526.981 366.175 527.292 366.366 527.568 366.628C527.843 366.889 528.061 367.229 528.22 367.646C528.379 368.061 528.458 368.565 528.458 369.159V369.611H523.255V368.656H527.21C527.21 368.321 527.142 368.024 527.005 367.766C526.869 367.504 526.677 367.298 526.43 367.148C526.186 366.997 525.899 366.922 525.569 366.922C525.211 366.922 524.899 367.01 524.632 367.186C524.368 367.359 524.163 367.587 524.018 367.868C523.876 368.146 523.805 368.449 523.805 368.776V369.521C523.805 369.959 523.882 370.331 524.035 370.638C524.191 370.945 524.409 371.179 524.687 371.341C524.966 371.5 525.291 371.58 525.663 371.58C525.904 371.58 526.125 371.545 526.324 371.477C526.522 371.406 526.694 371.301 526.839 371.162C526.984 371.023 527.095 370.851 527.172 370.646L528.377 370.864C528.281 371.219 528.108 371.53 527.858 371.797C527.61 372.061 527.299 372.267 526.924 372.415C526.552 372.56 526.127 372.632 525.65 372.632ZM535.805 372.632C535.172 372.632 534.626 372.489 534.169 372.202C533.714 371.912 533.365 371.513 533.12 371.004C532.876 370.496 532.754 369.913 532.754 369.257C532.754 368.592 532.879 368.006 533.129 367.497C533.379 366.986 533.731 366.587 534.186 366.3C534.64 366.013 535.176 365.869 535.792 365.869C536.289 365.869 536.733 365.962 537.122 366.146C537.511 366.328 537.825 366.584 538.064 366.913C538.305 367.243 538.449 367.628 538.494 368.068H537.254C537.186 367.761 537.029 367.497 536.785 367.276C536.544 367.054 536.22 366.943 535.814 366.943C535.458 366.943 535.147 367.037 534.88 367.224C534.616 367.409 534.41 367.673 534.262 368.017C534.115 368.358 534.041 368.761 534.041 369.227C534.041 369.705 534.113 370.116 534.258 370.463C534.403 370.81 534.608 371.078 534.872 371.268C535.139 371.459 535.453 371.554 535.814 371.554C536.055 371.554 536.274 371.51 536.47 371.422C536.669 371.331 536.835 371.202 536.968 371.034C537.105 370.866 537.2 370.665 537.254 370.429H538.494C538.449 370.852 538.311 371.23 538.081 371.562C537.85 371.895 537.542 372.156 537.156 372.347C536.772 372.537 536.322 372.632 535.805 372.632ZM541.131 368.614V372.5H539.857V363.773H541.114V367.02H541.195C541.348 366.668 541.582 366.388 541.898 366.18C542.213 365.973 542.625 365.869 543.134 365.869C543.582 365.869 543.974 365.962 544.31 366.146C544.648 366.331 544.909 366.607 545.094 366.973C545.281 367.337 545.375 367.791 545.375 368.337V372.5H544.101V368.49C544.101 368.01 543.977 367.638 543.73 367.374C543.483 367.107 543.139 366.973 542.699 366.973C542.398 366.973 542.128 367.037 541.889 367.165C541.653 367.293 541.467 367.48 541.331 367.727C541.197 367.972 541.131 368.267 541.131 368.614ZM548.98 372.645C548.565 372.645 548.19 372.568 547.855 372.415C547.52 372.259 547.254 372.033 547.058 371.737C546.865 371.442 546.768 371.08 546.768 370.651C546.768 370.281 546.839 369.977 546.982 369.739C547.124 369.5 547.315 369.311 547.557 369.172C547.798 369.033 548.068 368.928 548.366 368.857C548.665 368.786 548.969 368.732 549.278 368.695C549.67 368.649 549.989 368.612 550.233 368.584C550.477 368.553 550.655 368.503 550.766 368.435C550.876 368.366 550.932 368.256 550.932 368.102V368.072C550.932 367.7 550.827 367.412 550.616 367.207C550.409 367.003 550.099 366.901 549.688 366.901C549.259 366.901 548.92 366.996 548.673 367.186C548.429 367.374 548.26 367.582 548.166 367.812L546.969 367.54C547.111 367.142 547.318 366.821 547.591 366.577C547.866 366.33 548.183 366.151 548.541 366.04C548.899 365.926 549.276 365.869 549.67 365.869C549.932 365.869 550.209 365.901 550.501 365.963C550.797 366.023 551.072 366.134 551.328 366.295C551.587 366.457 551.798 366.689 551.963 366.99C552.128 367.288 552.21 367.676 552.21 368.153V372.5H550.966V371.605H550.915C550.832 371.77 550.709 371.932 550.544 372.091C550.379 372.25 550.168 372.382 549.909 372.487C549.651 372.592 549.341 372.645 548.98 372.645ZM549.257 371.622C549.609 371.622 549.911 371.553 550.161 371.413C550.413 371.274 550.605 371.092 550.736 370.868C550.869 370.641 550.936 370.398 550.936 370.139V369.295C550.891 369.341 550.803 369.384 550.672 369.423C550.544 369.46 550.398 369.493 550.233 369.521C550.068 369.547 549.908 369.571 549.751 369.594C549.595 369.614 549.464 369.631 549.359 369.645C549.112 369.676 548.886 369.729 548.682 369.803C548.48 369.876 548.318 369.983 548.196 370.122C548.077 370.259 548.017 370.44 548.017 370.668C548.017 370.983 548.134 371.222 548.366 371.384C548.599 371.543 548.896 371.622 549.257 371.622ZM555.181 368.614V372.5H553.907V365.955H555.13V367.02H555.211C555.362 366.673 555.598 366.395 555.919 366.185C556.243 365.974 556.65 365.869 557.142 365.869C557.588 365.869 557.978 365.963 558.314 366.151C558.649 366.335 558.909 366.611 559.093 366.977C559.278 367.344 559.37 367.797 559.37 368.337V372.5H558.096V368.49C558.096 368.016 557.973 367.645 557.725 367.378C557.478 367.108 557.139 366.973 556.707 366.973C556.412 366.973 556.149 367.037 555.919 367.165C555.691 367.293 555.511 367.48 555.377 367.727C555.247 367.972 555.181 368.267 555.181 368.614ZM563.824 375.091C563.304 375.091 562.856 375.023 562.481 374.886C562.109 374.75 561.805 374.57 561.569 374.345C561.333 374.121 561.157 373.875 561.041 373.608L562.136 373.156C562.213 373.281 562.315 373.413 562.443 373.553C562.574 373.695 562.75 373.815 562.971 373.915C563.196 374.014 563.484 374.064 563.836 374.064C564.319 374.064 564.718 373.946 565.034 373.71C565.349 373.477 565.507 373.105 565.507 372.594V371.307H565.426C565.349 371.446 565.238 371.601 565.093 371.771C564.951 371.942 564.755 372.089 564.505 372.214C564.255 372.339 563.93 372.402 563.529 372.402C563.012 372.402 562.547 372.281 562.132 372.04C561.72 371.795 561.393 371.436 561.152 370.962C560.913 370.484 560.794 369.898 560.794 369.202C560.794 368.506 560.912 367.909 561.147 367.412C561.386 366.915 561.713 366.534 562.127 366.27C562.542 366.003 563.012 365.869 563.538 365.869C563.944 365.869 564.272 365.938 564.522 366.074C564.772 366.207 564.967 366.364 565.106 366.543C565.248 366.722 565.358 366.879 565.434 367.016H565.528V365.955H566.777V372.645C566.777 373.207 566.646 373.669 566.385 374.03C566.123 374.391 565.77 374.658 565.324 374.831C564.88 375.004 564.38 375.091 563.824 375.091ZM563.811 371.345C564.177 371.345 564.487 371.26 564.74 371.089C564.995 370.916 565.189 370.669 565.319 370.348C565.453 370.024 565.52 369.636 565.52 369.185C565.52 368.744 565.454 368.357 565.324 368.021C565.193 367.686 565.001 367.425 564.748 367.237C564.495 367.047 564.183 366.952 563.811 366.952C563.427 366.952 563.108 367.051 562.852 367.25C562.596 367.446 562.403 367.713 562.272 368.051C562.145 368.389 562.081 368.767 562.081 369.185C562.081 369.614 562.146 369.99 562.277 370.314C562.407 370.638 562.6 370.891 562.856 371.072C563.115 371.254 563.433 371.345 563.811 371.345ZM571.306 372.632C570.662 372.632 570.106 372.494 569.64 372.219C569.177 371.94 568.819 371.55 568.566 371.047C568.316 370.541 568.191 369.949 568.191 369.27C568.191 368.599 568.316 368.009 568.566 367.497C568.819 366.986 569.172 366.587 569.623 366.3C570.078 366.013 570.609 365.869 571.217 365.869C571.586 365.869 571.944 365.93 572.291 366.053C572.637 366.175 572.949 366.366 573.224 366.628C573.5 366.889 573.717 367.229 573.876 367.646C574.035 368.061 574.115 368.565 574.115 369.159V369.611H568.912V368.656H572.866C572.866 368.321 572.798 368.024 572.662 367.766C572.525 367.504 572.333 367.298 572.086 367.148C571.842 366.997 571.555 366.922 571.225 366.922C570.868 366.922 570.555 367.01 570.288 367.186C570.024 367.359 569.819 367.587 569.674 367.868C569.532 368.146 569.461 368.449 569.461 368.776V369.521C569.461 369.959 569.538 370.331 569.691 370.638C569.848 370.945 570.065 371.179 570.343 371.341C570.622 371.5 570.947 371.58 571.319 371.58C571.561 371.58 571.781 371.545 571.98 371.477C572.179 371.406 572.35 371.301 572.495 371.162C572.64 371.023 572.751 370.851 572.828 370.646L574.034 370.864C573.937 371.219 573.764 371.53 573.514 371.797C573.267 372.061 572.956 372.267 572.581 372.415C572.208 372.56 571.784 372.632 571.306 372.632ZM580.433 367.553L579.278 367.757C579.23 367.609 579.153 367.469 579.048 367.335C578.946 367.202 578.807 367.092 578.631 367.007C578.455 366.922 578.234 366.879 577.97 366.879C577.609 366.879 577.308 366.96 577.067 367.122C576.825 367.281 576.705 367.487 576.705 367.74C576.705 367.959 576.786 368.135 576.947 368.268C577.109 368.402 577.371 368.511 577.732 368.597L578.771 368.835C579.374 368.974 579.822 369.189 580.118 369.479C580.413 369.768 580.561 370.145 580.561 370.608C580.561 371 580.447 371.349 580.22 371.656C579.996 371.96 579.682 372.199 579.278 372.372C578.878 372.545 578.413 372.632 577.885 372.632C577.152 372.632 576.554 372.476 576.091 372.163C575.628 371.848 575.344 371.401 575.239 370.821L576.47 370.634C576.547 370.955 576.705 371.197 576.943 371.362C577.182 371.524 577.493 371.605 577.876 371.605C578.294 371.605 578.628 371.518 578.878 371.345C579.128 371.169 579.253 370.955 579.253 370.702C579.253 370.497 579.176 370.325 579.023 370.186C578.872 370.047 578.641 369.942 578.328 369.871L577.22 369.628C576.609 369.489 576.158 369.267 575.865 368.963C575.575 368.659 575.43 368.274 575.43 367.808C575.43 367.422 575.538 367.084 575.754 366.794C575.97 366.504 576.268 366.278 576.649 366.116C577.03 365.952 577.466 365.869 577.957 365.869C578.665 365.869 579.222 366.023 579.628 366.33C580.034 366.634 580.303 367.041 580.433 367.553ZM585.138 372.5V365.955H586.412V372.5H585.138ZM585.781 364.945C585.56 364.945 585.369 364.871 585.21 364.723C585.054 364.572 584.976 364.393 584.976 364.186C584.976 363.976 585.054 363.797 585.21 363.649C585.369 363.499 585.56 363.423 585.781 363.423C586.003 363.423 586.192 363.499 586.348 363.649C586.507 363.797 586.587 363.976 586.587 364.186C586.587 364.393 586.507 364.572 586.348 364.723C586.192 364.871 586.003 364.945 585.781 364.945ZM589.4 368.614V372.5H588.126V365.955H589.349V367.02H589.43C589.581 366.673 589.816 366.395 590.137 366.185C590.461 365.974 590.869 365.869 591.36 365.869C591.806 365.869 592.197 365.963 592.532 366.151C592.868 366.335 593.127 366.611 593.312 366.977C593.497 367.344 593.589 367.797 593.589 368.337V372.5H592.315V368.49C592.315 368.016 592.191 367.645 591.944 367.378C591.697 367.108 591.358 366.973 590.926 366.973C590.63 366.973 590.368 367.037 590.137 367.165C589.91 367.293 589.73 367.48 589.596 367.727C589.466 367.972 589.4 368.267 589.4 368.614ZM598.474 372.5V365.955H599.705V366.994H599.773C599.893 366.642 600.103 366.365 600.404 366.163C600.708 365.959 601.052 365.857 601.435 365.857C601.515 365.857 601.609 365.859 601.717 365.865C601.827 365.871 601.914 365.878 601.977 365.886V367.105C601.925 367.091 601.835 367.075 601.704 367.058C601.573 367.038 601.442 367.028 601.312 367.028C601.011 367.028 600.742 367.092 600.506 367.22C600.273 367.345 600.089 367.52 599.952 367.744C599.816 367.966 599.748 368.219 599.748 368.503V372.5H598.474ZM605.666 372.632C605.021 372.632 604.466 372.494 604 372.219C603.537 371.94 603.179 371.55 602.926 371.047C602.676 370.541 602.551 369.949 602.551 369.27C602.551 368.599 602.676 368.009 602.926 367.497C603.179 366.986 603.531 366.587 603.983 366.3C604.437 366.013 604.968 365.869 605.576 365.869C605.946 365.869 606.304 365.93 606.65 366.053C606.997 366.175 607.308 366.366 607.583 366.628C607.859 366.889 608.076 367.229 608.235 367.646C608.395 368.061 608.474 368.565 608.474 369.159V369.611H603.271V368.656H607.225C607.225 368.321 607.157 368.024 607.021 367.766C606.885 367.504 606.693 367.298 606.446 367.148C606.201 366.997 605.914 366.922 605.585 366.922C605.227 366.922 604.914 367.01 604.647 367.186C604.383 367.359 604.179 367.587 604.034 367.868C603.892 368.146 603.821 368.449 603.821 368.776V369.521C603.821 369.959 603.897 370.331 604.051 370.638C604.207 370.945 604.424 371.179 604.703 371.341C604.981 371.5 605.306 371.58 605.679 371.58C605.92 371.58 606.14 371.545 606.339 371.477C606.538 371.406 606.71 371.301 606.855 371.162C607 371.023 607.11 370.851 607.187 370.646L608.393 370.864C608.297 371.219 608.123 371.53 607.873 371.797C607.626 372.061 607.315 372.267 606.94 372.415C606.568 372.56 606.143 372.632 605.666 372.632ZM611.793 372.645C611.378 372.645 611.003 372.568 610.668 372.415C610.332 372.259 610.067 372.033 609.871 371.737C609.678 371.442 609.581 371.08 609.581 370.651C609.581 370.281 609.652 369.977 609.794 369.739C609.936 369.5 610.128 369.311 610.369 369.172C610.611 369.033 610.881 368.928 611.179 368.857C611.477 368.786 611.781 368.732 612.091 368.695C612.483 368.649 612.801 368.612 613.045 368.584C613.29 368.553 613.467 368.503 613.578 368.435C613.689 368.366 613.744 368.256 613.744 368.102V368.072C613.744 367.7 613.639 367.412 613.429 367.207C613.222 367.003 612.912 366.901 612.5 366.901C612.071 366.901 611.733 366.996 611.486 367.186C611.241 367.374 611.072 367.582 610.979 367.812L609.781 367.54C609.923 367.142 610.131 366.821 610.403 366.577C610.679 366.33 610.996 366.151 611.354 366.04C611.712 365.926 612.088 365.869 612.483 365.869C612.744 365.869 613.021 365.901 613.314 365.963C613.609 366.023 613.885 366.134 614.141 366.295C614.399 366.457 614.611 366.689 614.776 366.99C614.94 367.288 615.023 367.676 615.023 368.153V372.5H613.778V371.605H613.727C613.645 371.77 613.521 371.932 613.357 372.091C613.192 372.25 612.98 372.382 612.722 372.487C612.463 372.592 612.153 372.645 611.793 372.645ZM612.07 371.622C612.422 371.622 612.723 371.553 612.973 371.413C613.226 371.274 613.418 371.092 613.548 370.868C613.682 370.641 613.749 370.398 613.749 370.139V369.295C613.703 369.341 613.615 369.384 613.484 369.423C613.357 369.46 613.21 369.493 613.045 369.521C612.881 369.547 612.72 369.571 612.564 369.594C612.408 369.614 612.277 369.631 612.172 369.645C611.925 369.676 611.699 369.729 611.494 369.803C611.293 369.876 611.131 369.983 611.009 370.122C610.889 370.259 610.83 370.44 610.83 370.668C610.83 370.983 610.946 371.222 611.179 371.384C611.412 371.543 611.709 371.622 612.07 371.622ZM617.994 363.773V372.5H616.72V363.773H617.994ZM623.565 368.26V369.364H619.695V368.26H623.565ZM628.318 365.955V366.977H624.743V365.955H628.318ZM625.702 364.386H626.976V370.578C626.976 370.825 627.013 371.011 627.087 371.136C627.161 371.259 627.256 371.342 627.372 371.388C627.491 371.43 627.621 371.452 627.76 371.452C627.862 371.452 627.952 371.445 628.028 371.43C628.105 371.416 628.165 371.405 628.207 371.396L628.438 372.449C628.364 372.477 628.259 372.506 628.122 372.534C627.986 372.565 627.815 372.582 627.611 372.585C627.276 372.591 626.963 372.531 626.673 372.406C626.384 372.281 626.149 372.088 625.97 371.827C625.791 371.565 625.702 371.237 625.702 370.842V364.386ZM629.728 372.5V365.955H631.002V372.5H629.728ZM630.371 364.945C630.15 364.945 629.959 364.871 629.8 364.723C629.644 364.572 629.566 364.393 629.566 364.186C629.566 363.976 629.644 363.797 629.8 363.649C629.959 363.499 630.15 363.423 630.371 363.423C630.593 363.423 630.782 363.499 630.938 363.649C631.097 363.797 631.176 363.976 631.176 364.186C631.176 364.393 631.097 364.572 630.938 364.723C630.782 364.871 630.593 364.945 630.371 364.945ZM632.716 372.5V365.955H633.939V367.02H634.02C634.156 366.659 634.379 366.378 634.689 366.176C634.999 365.972 635.369 365.869 635.801 365.869C636.239 365.869 636.605 365.972 636.901 366.176C637.199 366.381 637.419 366.662 637.561 367.02H637.629C637.786 366.67 638.034 366.392 638.375 366.185C638.716 365.974 639.122 365.869 639.594 365.869C640.188 365.869 640.672 366.055 641.047 366.428C641.425 366.8 641.614 367.361 641.614 368.111V372.5H640.339V368.23C640.339 367.787 640.219 367.466 639.977 367.267C639.736 367.068 639.447 366.969 639.112 366.969C638.697 366.969 638.375 367.097 638.145 367.352C637.915 367.605 637.8 367.93 637.8 368.328V372.5H636.53V368.149C636.53 367.794 636.419 367.509 636.197 367.293C635.976 367.077 635.688 366.969 635.332 366.969C635.091 366.969 634.868 367.033 634.663 367.161C634.462 367.286 634.298 367.46 634.173 367.685C634.051 367.909 633.99 368.169 633.99 368.464V372.5H632.716ZM646.142 372.632C645.498 372.632 644.942 372.494 644.476 372.219C644.013 371.94 643.655 371.55 643.402 371.047C643.152 370.541 643.027 369.949 643.027 369.27C643.027 368.599 643.152 368.009 643.402 367.497C643.655 366.986 644.007 366.587 644.459 366.3C644.914 366.013 645.445 365.869 646.053 365.869C646.422 365.869 646.78 365.93 647.127 366.053C647.473 366.175 647.784 366.366 648.06 366.628C648.336 366.889 648.553 367.229 648.712 367.646C648.871 368.061 648.951 368.565 648.951 369.159V369.611H643.748V368.656H647.702C647.702 368.321 647.634 368.024 647.498 367.766C647.361 367.504 647.169 367.298 646.922 367.148C646.678 366.997 646.391 366.922 646.061 366.922C645.703 366.922 645.391 367.01 645.124 367.186C644.86 367.359 644.655 367.587 644.51 367.868C644.368 368.146 644.297 368.449 644.297 368.776V369.521C644.297 369.959 644.374 370.331 644.527 370.638C644.684 370.945 644.901 371.179 645.179 371.341C645.458 371.5 645.783 371.58 646.155 371.58C646.397 371.58 646.617 371.545 646.816 371.477C647.015 371.406 647.186 371.301 647.331 371.162C647.476 371.023 647.587 370.851 647.664 370.646L648.87 370.864C648.773 371.219 648.6 371.53 648.35 371.797C648.103 372.061 647.792 372.267 647.417 372.415C647.044 372.56 646.62 372.632 646.142 372.632ZM651.204 372.581C650.971 372.581 650.771 372.499 650.603 372.334C650.435 372.166 650.352 371.964 650.352 371.729C650.352 371.496 650.435 371.297 650.603 371.132C650.771 370.964 650.971 370.881 651.204 370.881C651.437 370.881 651.637 370.964 651.805 371.132C651.972 371.297 652.056 371.496 652.056 371.729C652.056 371.885 652.016 372.028 651.937 372.159C651.86 372.287 651.758 372.389 651.63 372.466C651.502 372.543 651.36 372.581 651.204 372.581Z" fill="#A1A1AA"/>
<path d="M607.5 404.5C607.5 398.149 612.649 393 619 393H653C659.351 393 664.5 398.149 664.5 404.5V412.5C664.5 418.851 659.351 424 653 424H619C612.649 424 607.5 418.851 607.5 412.5V404.5Z" fill="url(#paint2_linear_1475_2620)"/>
<path d="M607.5 404.5C607.5 398.149 612.649 393 619 393H653C659.351 393 664.5 398.149 664.5 404.5V412.5C664.5 418.851 659.351 424 653 424H619C612.649 424 607.5 418.851 607.5 412.5V404.5Z" stroke="url(#paint3_linear_1475_2620)"/>
<path d="M622.784 412.5H619.959V403.773H622.874C623.729 403.773 624.463 403.947 625.077 404.297C625.69 404.643 626.161 405.142 626.487 405.793C626.817 406.44 626.982 407.217 626.982 408.124C626.982 409.033 626.815 409.814 626.483 410.467C626.153 411.121 625.676 411.624 625.051 411.976C624.426 412.325 623.67 412.5 622.784 412.5ZM621.276 411.349H622.712C623.376 411.349 623.929 411.224 624.369 410.974C624.81 410.722 625.139 410.357 625.358 409.879C625.577 409.399 625.686 408.814 625.686 408.124C625.686 407.439 625.577 406.858 625.358 406.381C625.142 405.903 624.82 405.541 624.391 405.294C623.962 405.047 623.429 404.923 622.793 404.923H621.276V411.349ZM631.274 412.632C630.66 412.632 630.125 412.491 629.667 412.21C629.21 411.929 628.855 411.536 628.602 411.03C628.349 410.524 628.223 409.933 628.223 409.257C628.223 408.578 628.349 407.984 628.602 407.476C628.855 406.967 629.21 406.572 629.667 406.291C630.125 406.01 630.66 405.869 631.274 405.869C631.887 405.869 632.423 406.01 632.88 406.291C633.338 406.572 633.693 406.967 633.946 407.476C634.199 407.984 634.325 408.578 634.325 409.257C634.325 409.933 634.199 410.524 633.946 411.03C633.693 411.536 633.338 411.929 632.88 412.21C632.423 412.491 631.887 412.632 631.274 412.632ZM631.278 411.562C631.676 411.562 632.005 411.457 632.267 411.247C632.528 411.037 632.721 410.757 632.846 410.408C632.974 410.058 633.038 409.673 633.038 409.253C633.038 408.835 632.974 408.452 632.846 408.102C632.721 407.75 632.528 407.467 632.267 407.254C632.005 407.041 631.676 406.935 631.278 406.935C630.877 406.935 630.545 407.041 630.281 407.254C630.02 407.467 629.825 407.75 629.697 408.102C629.572 408.452 629.51 408.835 629.51 409.253C629.51 409.673 629.572 410.058 629.697 410.408C629.825 410.757 630.02 411.037 630.281 411.247C630.545 411.457 630.877 411.562 631.278 411.562ZM637.021 408.614V412.5H635.747V405.955H636.97V407.02H637.051C637.202 406.673 637.438 406.395 637.759 406.185C638.082 405.974 638.49 405.869 638.982 405.869C639.428 405.869 639.818 405.963 640.153 406.151C640.489 406.335 640.749 406.611 640.933 406.977C641.118 407.344 641.21 407.797 641.21 408.337V412.5H639.936V408.49C639.936 408.016 639.813 407.645 639.565 407.378C639.318 407.108 638.979 406.973 638.547 406.973C638.251 406.973 637.989 407.037 637.759 407.165C637.531 407.293 637.351 407.48 637.217 407.727C637.087 407.972 637.021 408.267 637.021 408.614ZM645.74 412.632C645.095 412.632 644.54 412.494 644.074 412.219C643.611 411.94 643.253 411.55 643 411.047C642.75 410.541 642.625 409.949 642.625 409.27C642.625 408.599 642.75 408.009 643 407.497C643.253 406.986 643.605 406.587 644.057 406.3C644.511 406.013 645.043 405.869 645.651 405.869C646.02 405.869 646.378 405.93 646.724 406.053C647.071 406.175 647.382 406.366 647.658 406.628C647.933 406.889 648.151 407.229 648.31 407.646C648.469 408.061 648.548 408.565 648.548 409.159V409.611H643.345V408.656H647.3C647.3 408.321 647.232 408.024 647.095 407.766C646.959 407.504 646.767 407.298 646.52 407.148C646.276 406.997 645.989 406.922 645.659 406.922C645.301 406.922 644.989 407.01 644.722 407.186C644.457 407.359 644.253 407.587 644.108 407.868C643.966 408.146 643.895 408.449 643.895 408.776V409.521C643.895 409.959 643.972 410.331 644.125 410.638C644.281 410.945 644.499 411.179 644.777 411.341C645.055 411.5 645.381 411.58 645.753 411.58C645.994 411.58 646.214 411.545 646.413 411.477C646.612 411.406 646.784 411.301 646.929 411.162C647.074 411.023 647.185 410.851 647.261 410.646L648.467 410.864C648.371 411.219 648.197 411.53 647.947 411.797C647.7 412.061 647.389 412.267 647.014 412.415C646.642 412.56 646.217 412.632 645.74 412.632ZM651.569 403.773L651.458 409.99H650.277L650.167 403.773H651.569ZM650.87 412.581C650.634 412.581 650.432 412.499 650.265 412.334C650.097 412.166 650.015 411.964 650.017 411.729C650.015 411.496 650.097 411.297 650.265 411.132C650.432 410.964 650.634 410.881 650.87 410.881C651.1 410.881 651.299 410.964 651.466 411.132C651.634 411.297 651.719 411.496 651.722 411.729C651.719 411.885 651.678 412.028 651.598 412.159C651.522 412.287 651.419 412.389 651.292 412.466C651.164 412.543 651.023 412.581 650.87 412.581Z" fill="#A1A1AA"/>
<g filter="url(#filter0_dd_1475_2620)">
<rect x="451.6" y="443.5" width="67.8" height="22.8" rx="6.6" fill="#FAFAFA"/>
<rect x="451.6" y="443.5" width="67.8" height="22.8" rx="6.6" stroke="#D4D4D8" stroke-width="1.2"/>
<path d="M459.959 450.173H461.557L464.335 456.957H464.438L467.216 450.173H468.814V458.9H467.561V452.585H467.48L464.906 458.888H463.866L461.293 452.581H461.212V458.9H459.959V450.173ZM470.626 458.9V452.355H471.9V458.9H470.626ZM471.27 451.345C471.048 451.345 470.858 451.271 470.699 451.123C470.542 450.973 470.464 450.794 470.464 450.586C470.464 450.376 470.542 450.197 470.699 450.05C470.858 449.899 471.048 449.824 471.27 449.824C471.491 449.824 471.68 449.899 471.836 450.05C471.995 450.197 472.075 450.376 472.075 450.586C472.075 450.794 471.995 450.973 471.836 451.123C471.68 451.271 471.491 451.345 471.27 451.345ZM478.519 453.953L477.364 454.157C477.316 454.01 477.239 453.869 477.134 453.736C477.032 453.602 476.893 453.493 476.717 453.407C476.54 453.322 476.32 453.28 476.056 453.28C475.695 453.28 475.394 453.361 475.153 453.523C474.911 453.682 474.79 453.888 474.79 454.14C474.79 454.359 474.871 454.535 475.033 454.669C475.195 454.802 475.457 454.912 475.817 454.997L476.857 455.236C477.46 455.375 477.908 455.589 478.204 455.879C478.499 456.169 478.647 456.545 478.647 457.008C478.647 457.4 478.533 457.75 478.306 458.057C478.082 458.361 477.768 458.599 477.364 458.773C476.964 458.946 476.499 459.032 475.971 459.032C475.238 459.032 474.64 458.876 474.177 458.564C473.714 458.248 473.43 457.801 473.325 457.221L474.556 457.034C474.633 457.355 474.79 457.598 475.029 457.763C475.268 457.925 475.579 458.006 475.962 458.006C476.38 458.006 476.714 457.919 476.964 457.746C477.214 457.569 477.339 457.355 477.339 457.102C477.339 456.898 477.262 456.726 477.109 456.586C476.958 456.447 476.727 456.342 476.414 456.271L475.306 456.028C474.695 455.889 474.244 455.667 473.951 455.363C473.661 455.059 473.516 454.675 473.516 454.209C473.516 453.822 473.624 453.484 473.84 453.194C474.056 452.905 474.354 452.679 474.735 452.517C475.116 452.352 475.552 452.27 476.043 452.27C476.751 452.27 477.308 452.423 477.714 452.73C478.12 453.034 478.388 453.442 478.519 453.953ZM481.322 455.014V458.9H480.048V450.173H481.305V453.42H481.386C481.539 453.068 481.774 452.788 482.089 452.581C482.404 452.373 482.816 452.27 483.325 452.27C483.774 452.27 484.166 452.362 484.501 452.547C484.839 452.731 485.1 453.007 485.285 453.373C485.473 453.737 485.566 454.192 485.566 454.737V458.9H484.292V454.89C484.292 454.41 484.169 454.038 483.922 453.774C483.674 453.507 483.331 453.373 482.89 453.373C482.589 453.373 482.319 453.437 482.081 453.565C481.845 453.693 481.659 453.881 481.522 454.128C481.389 454.372 481.322 454.667 481.322 455.014ZM489.172 459.045C488.757 459.045 488.382 458.969 488.047 458.815C487.711 458.659 487.446 458.433 487.25 458.138C487.056 457.842 486.96 457.48 486.96 457.051C486.96 456.682 487.031 456.378 487.173 456.139C487.315 455.9 487.507 455.711 487.748 455.572C487.99 455.433 488.26 455.328 488.558 455.257C488.856 455.186 489.16 455.132 489.47 455.095C489.862 455.05 490.18 455.013 490.424 454.984C490.669 454.953 490.846 454.903 490.957 454.835C491.068 454.767 491.123 454.656 491.123 454.503V454.473C491.123 454.101 491.018 453.812 490.808 453.608C490.6 453.403 490.291 453.301 489.879 453.301C489.45 453.301 489.112 453.396 488.865 453.586C488.62 453.774 488.451 453.983 488.358 454.213L487.16 453.94C487.302 453.542 487.51 453.221 487.782 452.977C488.058 452.73 488.375 452.551 488.733 452.44C489.091 452.327 489.467 452.27 489.862 452.27C490.123 452.27 490.4 452.301 490.693 452.363C490.988 452.423 491.264 452.534 491.52 452.696C491.778 452.858 491.99 453.089 492.154 453.39C492.319 453.689 492.402 454.077 492.402 454.554V458.9H491.157V458.006H491.106C491.024 458.17 490.9 458.332 490.735 458.491C490.571 458.65 490.359 458.782 490.1 458.888C489.842 458.993 489.532 459.045 489.172 459.045ZM489.449 458.023C489.801 458.023 490.102 457.953 490.352 457.814C490.605 457.675 490.797 457.493 490.927 457.268C491.061 457.041 491.127 456.798 491.127 456.54V455.696C491.082 455.741 490.994 455.784 490.863 455.824C490.735 455.861 490.589 455.893 490.424 455.922C490.26 455.947 490.099 455.971 489.943 455.994C489.787 456.014 489.656 456.031 489.551 456.045C489.304 456.077 489.078 456.129 488.873 456.203C488.672 456.277 488.51 456.383 488.387 456.523C488.268 456.659 488.208 456.841 488.208 457.068C488.208 457.383 488.325 457.622 488.558 457.784C488.791 457.943 489.088 458.023 489.449 458.023ZM495.373 450.173V458.9H494.099V450.173H495.373ZM501.102 458.9H499.705L502.845 450.173H504.366L507.507 458.9H506.109L503.642 451.758H503.574L501.102 458.9ZM501.337 455.483H505.871V456.591H501.337V455.483ZM509.505 458.981C509.272 458.981 509.071 458.899 508.904 458.734C508.736 458.567 508.652 458.365 508.652 458.129C508.652 457.896 508.736 457.697 508.904 457.532C509.071 457.365 509.272 457.281 509.505 457.281C509.738 457.281 509.938 457.365 510.105 457.532C510.273 457.697 510.357 457.896 510.357 458.129C510.357 458.285 510.317 458.429 510.238 458.559C510.161 458.687 510.059 458.79 509.931 458.866C509.803 458.943 509.661 458.981 509.505 458.981Z" fill="#18181B"/>
<path d="M461.649 422.997L474.703 436.051C475.459 436.807 474.924 438.1 473.854 438.1H467.698C467.062 438.1 466.452 438.353 466.001 438.803L461.649 443.156C460.893 443.912 459.6 443.376 459.6 442.307V423.846C459.6 422.776 460.893 422.241 461.649 422.997Z" fill="#FAFAFA" stroke="#D4D4D8" stroke-width="1.2"/>
</g>
<path d="M201.5 225.5C201.5 219.149 206.649 214 213 214H481C487.351 214 492.5 219.149 492.5 225.5V233.5C492.5 239.851 487.351 245 481 245H213C206.649 245 201.5 239.851 201.5 233.5V225.5Z" fill="url(#paint4_linear_1475_2620)"/>
<path d="M201.5 225.5C201.5 219.149 206.649 214 213 214H481C487.351 214 492.5 219.149 492.5 225.5V233.5C492.5 239.851 487.351 245 481 245H213C206.649 245 201.5 239.851 201.5 233.5V225.5Z" stroke="url(#paint5_linear_1475_2620)"/>
<path d="M213.959 233.5V224.773H215.276V232.366H219.23V233.5H213.959ZM223.451 233.632C222.806 233.632 222.251 233.494 221.785 233.219C221.322 232.94 220.964 232.55 220.711 232.047C220.461 231.541 220.336 230.949 220.336 230.27C220.336 229.599 220.461 229.009 220.711 228.497C220.964 227.986 221.316 227.587 221.768 227.3C222.222 227.013 222.754 226.869 223.362 226.869C223.731 226.869 224.089 226.93 224.435 227.053C224.782 227.175 225.093 227.366 225.369 227.628C225.644 227.889 225.862 228.229 226.021 228.646C226.18 229.061 226.259 229.565 226.259 230.159V230.611H221.056V229.656H225.011C225.011 229.321 224.942 229.024 224.806 228.766C224.67 228.504 224.478 228.298 224.231 228.148C223.987 227.997 223.7 227.922 223.37 227.922C223.012 227.922 222.7 228.01 222.433 228.186C222.168 228.359 221.964 228.587 221.819 228.868C221.677 229.146 221.606 229.449 221.606 229.776V230.521C221.606 230.959 221.683 231.331 221.836 231.638C221.992 231.945 222.21 232.179 222.488 232.341C222.766 232.5 223.092 232.58 223.464 232.58C223.705 232.58 223.925 232.545 224.124 232.477C224.323 232.406 224.495 232.301 224.64 232.162C224.785 232.023 224.896 231.851 224.972 231.646L226.178 231.864C226.082 232.219 225.908 232.53 225.658 232.797C225.411 233.061 225.1 233.267 224.725 233.415C224.353 233.56 223.928 233.632 223.451 233.632ZM230.728 226.955V227.977H227.153V226.955H230.728ZM228.112 225.386H229.386V231.578C229.386 231.825 229.423 232.011 229.497 232.136C229.571 232.259 229.666 232.342 229.782 232.388C229.902 232.43 230.031 232.452 230.17 232.452C230.272 232.452 230.362 232.445 230.439 232.43C230.515 232.416 230.575 232.405 230.618 232.396L230.848 233.449C230.774 233.477 230.669 233.506 230.532 233.534C230.396 233.565 230.225 233.582 230.021 233.585C229.686 233.591 229.373 233.531 229.083 233.406C228.794 233.281 228.559 233.088 228.38 232.827C228.201 232.565 228.112 232.237 228.112 231.842V225.386ZM233.561 224.773V225.591C233.561 225.832 233.516 226.087 233.425 226.354C233.337 226.618 233.212 226.872 233.05 227.116C232.888 227.361 232.697 227.571 232.479 227.747L231.848 227.295C232.016 227.051 232.161 226.791 232.283 226.516C232.408 226.24 232.47 225.936 232.47 225.604V224.773H233.561ZM238.871 228.553L237.716 228.757C237.668 228.609 237.591 228.469 237.486 228.335C237.384 228.202 237.244 228.092 237.068 228.007C236.892 227.922 236.672 227.879 236.408 227.879C236.047 227.879 235.746 227.96 235.504 228.122C235.263 228.281 235.142 228.487 235.142 228.74C235.142 228.959 235.223 229.135 235.385 229.268C235.547 229.402 235.808 229.511 236.169 229.597L237.209 229.835C237.811 229.974 238.26 230.189 238.555 230.479C238.851 230.768 238.999 231.145 238.999 231.608C238.999 232 238.885 232.349 238.658 232.656C238.433 232.96 238.119 233.199 237.716 233.372C237.315 233.545 236.851 233.632 236.322 233.632C235.589 233.632 234.991 233.476 234.528 233.163C234.065 232.848 233.781 232.401 233.676 231.821L234.908 231.634C234.984 231.955 235.142 232.197 235.381 232.362C235.619 232.524 235.93 232.605 236.314 232.605C236.732 232.605 237.065 232.518 237.315 232.345C237.565 232.169 237.69 231.955 237.69 231.702C237.69 231.497 237.614 231.325 237.46 231.186C237.31 231.047 237.078 230.942 236.766 230.871L235.658 230.628C235.047 230.489 234.595 230.267 234.303 229.963C234.013 229.659 233.868 229.274 233.868 228.808C233.868 228.422 233.976 228.084 234.192 227.794C234.408 227.504 234.706 227.278 235.087 227.116C235.467 226.952 235.903 226.869 236.395 226.869C237.102 226.869 237.659 227.023 238.065 227.33C238.472 227.634 238.74 228.041 238.871 228.553ZM248.48 228.553L247.325 228.757C247.277 228.609 247.2 228.469 247.095 228.335C246.993 228.202 246.854 228.092 246.678 228.007C246.501 227.922 246.281 227.879 246.017 227.879C245.656 227.879 245.355 227.96 245.114 228.122C244.872 228.281 244.751 228.487 244.751 228.74C244.751 228.959 244.832 229.135 244.994 229.268C245.156 229.402 245.418 229.511 245.778 229.597L246.818 229.835C247.42 229.974 247.869 230.189 248.165 230.479C248.46 230.768 248.608 231.145 248.608 231.608C248.608 232 248.494 232.349 248.267 232.656C248.043 232.96 247.729 233.199 247.325 233.372C246.925 233.545 246.46 233.632 245.932 233.632C245.199 233.632 244.601 233.476 244.138 233.163C243.675 232.848 243.391 232.401 243.286 231.821L244.517 231.634C244.594 231.955 244.751 232.197 244.99 232.362C245.229 232.524 245.54 232.605 245.923 232.605C246.341 232.605 246.675 232.518 246.925 232.345C247.175 232.169 247.3 231.955 247.3 231.702C247.3 231.497 247.223 231.325 247.07 231.186C246.919 231.047 246.688 230.942 246.375 230.871L245.267 230.628C244.656 230.489 244.205 230.267 243.912 229.963C243.622 229.659 243.477 229.274 243.477 228.808C243.477 228.422 243.585 228.084 243.801 227.794C244.017 227.504 244.315 227.278 244.696 227.116C245.077 226.952 245.513 226.869 246.004 226.869C246.712 226.869 247.268 227.023 247.675 227.33C248.081 227.634 248.349 228.041 248.48 228.553ZM250.814 235.955C250.624 235.955 250.451 235.939 250.294 235.908C250.138 235.879 250.022 235.848 249.945 235.814L250.252 234.77C250.485 234.832 250.692 234.859 250.874 234.851C251.056 234.842 251.216 234.774 251.355 234.646C251.498 234.518 251.623 234.31 251.73 234.02L251.888 233.585L249.493 226.955H250.857L252.515 232.034H252.583L254.24 226.955H255.608L252.911 234.374C252.786 234.714 252.627 235.003 252.434 235.239C252.24 235.477 252.01 235.656 251.743 235.776C251.476 235.895 251.167 235.955 250.814 235.955ZM258.08 229.614V233.5H256.806V226.955H258.029V228.02H258.11C258.26 227.673 258.496 227.395 258.817 227.185C259.141 226.974 259.549 226.869 260.04 226.869C260.486 226.869 260.877 226.963 261.212 227.151C261.547 227.335 261.807 227.611 261.992 227.977C262.176 228.344 262.269 228.797 262.269 229.337V233.5H260.995V229.49C260.995 229.016 260.871 228.645 260.624 228.378C260.377 228.108 260.037 227.973 259.605 227.973C259.31 227.973 259.047 228.037 258.817 228.165C258.59 228.293 258.409 228.48 258.276 228.727C258.145 228.972 258.08 229.267 258.08 229.614ZM266.735 233.632C266.101 233.632 265.556 233.489 265.098 233.202C264.644 232.912 264.294 232.513 264.05 232.004C263.806 231.496 263.684 230.913 263.684 230.257C263.684 229.592 263.809 229.006 264.059 228.497C264.309 227.986 264.661 227.587 265.115 227.3C265.57 227.013 266.105 226.869 266.722 226.869C267.219 226.869 267.662 226.962 268.051 227.146C268.441 227.328 268.755 227.584 268.993 227.913C269.235 228.243 269.378 228.628 269.424 229.068H268.184C268.115 228.761 267.959 228.497 267.715 228.276C267.473 228.054 267.15 227.943 266.743 227.943C266.388 227.943 266.077 228.037 265.81 228.224C265.546 228.409 265.34 228.673 265.192 229.017C265.044 229.358 264.971 229.761 264.971 230.227C264.971 230.705 265.043 231.116 265.188 231.463C265.333 231.81 265.537 232.078 265.801 232.268C266.069 232.459 266.382 232.554 266.743 232.554C266.985 232.554 267.203 232.51 267.4 232.422C267.598 232.331 267.765 232.202 267.898 232.034C268.034 231.866 268.13 231.665 268.184 231.429H269.424C269.378 231.852 269.24 232.23 269.01 232.562C268.78 232.895 268.472 233.156 268.086 233.347C267.702 233.537 267.252 233.632 266.735 233.632ZM278.108 230.786V226.955H279.387V233.5H278.134V232.366H278.066C277.915 232.716 277.674 233.007 277.341 233.24C277.012 233.47 276.601 233.585 276.11 233.585C275.689 233.585 275.317 233.493 274.993 233.308C274.672 233.121 274.419 232.844 274.235 232.477C274.053 232.111 273.962 231.658 273.962 231.118V226.955H275.236V230.964C275.236 231.411 275.36 231.766 275.607 232.03C275.854 232.294 276.175 232.426 276.57 232.426C276.809 232.426 277.046 232.366 277.282 232.247C277.52 232.128 277.718 231.947 277.874 231.706C278.033 231.464 278.111 231.158 278.108 230.786ZM281.099 235.955V226.955H282.343V228.016H282.45C282.523 227.879 282.63 227.722 282.769 227.543C282.908 227.364 283.102 227.207 283.349 227.074C283.596 226.938 283.923 226.869 284.329 226.869C284.857 226.869 285.329 227.003 285.744 227.27C286.158 227.537 286.484 227.922 286.719 228.425C286.958 228.928 287.077 229.533 287.077 230.24C287.077 230.947 286.96 231.554 286.724 232.06C286.488 232.562 286.164 232.95 285.752 233.223C285.34 233.493 284.87 233.628 284.342 233.628C283.944 233.628 283.619 233.561 283.366 233.428C283.116 233.294 282.92 233.138 282.778 232.959C282.636 232.78 282.526 232.621 282.45 232.482H282.373V235.955H281.099ZM282.347 230.227C282.347 230.687 282.414 231.091 282.548 231.438C282.681 231.784 282.874 232.055 283.127 232.251C283.38 232.445 283.69 232.541 284.056 232.541C284.437 232.541 284.755 232.44 285.011 232.239C285.266 232.034 285.46 231.757 285.59 231.408C285.724 231.058 285.79 230.665 285.79 230.227C285.79 229.795 285.725 229.408 285.594 229.064C285.467 228.72 285.273 228.449 285.015 228.25C284.759 228.051 284.44 227.952 284.056 227.952C283.687 227.952 283.374 228.047 283.119 228.237C282.866 228.428 282.674 228.693 282.543 229.034C282.413 229.375 282.347 229.773 282.347 230.227ZM294.736 226.955V227.977H291.161V226.955H294.736ZM292.12 225.386H293.394V231.578C293.394 231.825 293.431 232.011 293.505 232.136C293.578 232.259 293.674 232.342 293.79 232.388C293.909 232.43 294.039 232.452 294.178 232.452C294.28 232.452 294.37 232.445 294.446 232.43C294.523 232.416 294.583 232.405 294.625 232.396L294.855 233.449C294.782 233.477 294.676 233.506 294.54 233.534C294.404 233.565 294.233 233.582 294.029 233.585C293.694 233.591 293.381 233.531 293.091 233.406C292.801 233.281 292.567 233.088 292.388 232.827C292.209 232.565 292.12 232.237 292.12 231.842V225.386ZM297.56 229.614V233.5H296.286V224.773H297.543V228.02H297.624C297.778 227.668 298.012 227.388 298.327 227.18C298.643 226.973 299.055 226.869 299.563 226.869C300.012 226.869 300.404 226.962 300.739 227.146C301.077 227.331 301.339 227.607 301.523 227.973C301.711 228.337 301.805 228.791 301.805 229.337V233.5H300.531V229.49C300.531 229.01 300.407 228.638 300.16 228.374C299.913 228.107 299.569 227.973 299.129 227.973C298.827 227.973 298.558 228.037 298.319 228.165C298.083 228.293 297.897 228.48 297.761 228.727C297.627 228.972 297.56 229.267 297.56 229.614ZM306.326 233.632C305.681 233.632 305.126 233.494 304.66 233.219C304.197 232.94 303.839 232.55 303.586 232.047C303.336 231.541 303.211 230.949 303.211 230.27C303.211 229.599 303.336 229.009 303.586 228.497C303.839 227.986 304.191 227.587 304.643 227.3C305.097 227.013 305.629 226.869 306.237 226.869C306.606 226.869 306.964 226.93 307.31 227.053C307.657 227.175 307.968 227.366 308.244 227.628C308.519 227.889 308.737 228.229 308.896 228.646C309.055 229.061 309.134 229.565 309.134 230.159V230.611H303.931V229.656H307.886C307.886 229.321 307.817 229.024 307.681 228.766C307.545 228.504 307.353 228.298 307.106 228.148C306.862 227.997 306.575 227.922 306.245 227.922C305.887 227.922 305.575 228.01 305.308 228.186C305.043 228.359 304.839 228.587 304.694 228.868C304.552 229.146 304.481 229.449 304.481 229.776V230.521C304.481 230.959 304.558 231.331 304.711 231.638C304.867 231.945 305.085 232.179 305.363 232.341C305.641 232.5 305.967 232.58 306.339 232.58C306.58 232.58 306.8 232.545 306.999 232.477C307.198 232.406 307.37 232.301 307.515 232.162C307.66 232.023 307.771 231.851 307.847 231.646L309.053 231.864C308.957 232.219 308.783 232.53 308.533 232.797C308.286 233.061 307.975 233.267 307.6 233.415C307.228 233.56 306.803 233.632 306.326 233.632ZM314.998 224.773V233.5H313.724V224.773H314.998ZM318.617 233.645C318.202 233.645 317.827 233.568 317.492 233.415C317.157 233.259 316.891 233.033 316.695 232.737C316.502 232.442 316.405 232.08 316.405 231.651C316.405 231.281 316.476 230.977 316.618 230.739C316.76 230.5 316.952 230.311 317.194 230.172C317.435 230.033 317.705 229.928 318.003 229.857C318.301 229.786 318.605 229.732 318.915 229.695C319.307 229.649 319.625 229.612 319.87 229.584C320.114 229.553 320.292 229.503 320.402 229.435C320.513 229.366 320.569 229.256 320.569 229.102V229.072C320.569 228.7 320.463 228.412 320.253 228.207C320.046 228.003 319.736 227.901 319.324 227.901C318.895 227.901 318.557 227.996 318.31 228.186C318.066 228.374 317.897 228.582 317.803 228.812L316.605 228.54C316.748 228.142 316.955 227.821 317.228 227.577C317.503 227.33 317.82 227.151 318.178 227.04C318.536 226.926 318.912 226.869 319.307 226.869C319.569 226.869 319.846 226.901 320.138 226.963C320.434 227.023 320.709 227.134 320.965 227.295C321.223 227.457 321.435 227.689 321.6 227.99C321.765 228.288 321.847 228.676 321.847 229.153V233.5H320.603V232.605H320.551C320.469 232.77 320.346 232.932 320.181 233.091C320.016 233.25 319.804 233.382 319.546 233.487C319.287 233.592 318.978 233.645 318.617 233.645ZM318.894 232.622C319.246 232.622 319.547 232.553 319.797 232.413C320.05 232.274 320.242 232.092 320.373 231.868C320.506 231.641 320.573 231.398 320.573 231.139V230.295C320.527 230.341 320.439 230.384 320.309 230.423C320.181 230.46 320.034 230.493 319.87 230.521C319.705 230.547 319.544 230.571 319.388 230.594C319.232 230.614 319.101 230.631 318.996 230.645C318.749 230.676 318.523 230.729 318.319 230.803C318.117 230.876 317.955 230.983 317.833 231.122C317.713 231.259 317.654 231.44 317.654 231.668C317.654 231.983 317.77 232.222 318.003 232.384C318.236 232.543 318.533 232.622 318.894 232.622ZM326.599 226.955V227.977H323.024V226.955H326.599ZM323.983 225.386H325.257V231.578C325.257 231.825 325.294 232.011 325.368 232.136C325.442 232.259 325.537 232.342 325.653 232.388C325.773 232.43 325.902 232.452 326.041 232.452C326.143 232.452 326.233 232.445 326.31 232.43C326.386 232.416 326.446 232.405 326.489 232.396L326.719 233.449C326.645 233.477 326.54 233.506 326.403 233.534C326.267 233.565 326.097 233.582 325.892 233.585C325.557 233.591 325.244 233.531 324.955 233.406C324.665 233.281 324.43 233.088 324.251 232.827C324.072 232.565 323.983 232.237 323.983 231.842V225.386ZM330.76 233.632C330.115 233.632 329.559 233.494 329.093 233.219C328.63 232.94 328.272 232.55 328.02 232.047C327.77 231.541 327.645 230.949 327.645 230.27C327.645 229.599 327.77 229.009 328.02 228.497C328.272 227.986 328.625 227.587 329.076 227.3C329.531 227.013 330.062 226.869 330.67 226.869C331.039 226.869 331.397 226.93 331.744 227.053C332.091 227.175 332.402 227.366 332.677 227.628C332.953 227.889 333.17 228.229 333.329 228.646C333.488 229.061 333.568 229.565 333.568 230.159V230.611H328.365V229.656H332.319C332.319 229.321 332.251 229.024 332.115 228.766C331.978 228.504 331.787 228.298 331.539 228.148C331.295 227.997 331.008 227.922 330.679 227.922C330.321 227.922 330.008 228.01 329.741 228.186C329.477 228.359 329.272 228.587 329.127 228.868C328.985 229.146 328.914 229.449 328.914 229.776V230.521C328.914 230.959 328.991 231.331 329.145 231.638C329.301 231.945 329.518 232.179 329.797 232.341C330.075 232.5 330.4 232.58 330.772 232.58C331.014 232.58 331.234 232.545 331.433 232.477C331.632 232.406 331.804 232.301 331.949 232.162C332.093 232.023 332.204 231.851 332.281 231.646L333.487 231.864C333.39 232.219 333.217 232.53 332.967 232.797C332.72 233.061 332.409 233.267 332.034 233.415C331.662 233.56 331.237 233.632 330.76 233.632ZM339.886 228.553L338.732 228.757C338.683 228.609 338.607 228.469 338.501 228.335C338.399 228.202 338.26 228.092 338.084 228.007C337.908 227.922 337.688 227.879 337.423 227.879C337.063 227.879 336.761 227.96 336.52 228.122C336.278 228.281 336.158 228.487 336.158 228.74C336.158 228.959 336.239 229.135 336.401 229.268C336.563 229.402 336.824 229.511 337.185 229.597L338.224 229.835C338.827 229.974 339.276 230.189 339.571 230.479C339.866 230.768 340.014 231.145 340.014 231.608C340.014 232 339.901 232.349 339.673 232.656C339.449 232.96 339.135 233.199 338.732 233.372C338.331 233.545 337.866 233.632 337.338 233.632C336.605 233.632 336.007 233.476 335.544 233.163C335.081 232.848 334.797 232.401 334.692 231.821L335.923 231.634C336 231.955 336.158 232.197 336.396 232.362C336.635 232.524 336.946 232.605 337.33 232.605C337.747 232.605 338.081 232.518 338.331 232.345C338.581 232.169 338.706 231.955 338.706 231.702C338.706 231.497 338.629 231.325 338.476 231.186C338.325 231.047 338.094 230.942 337.781 230.871L336.673 230.628C336.063 230.489 335.611 230.267 335.318 229.963C335.028 229.659 334.884 229.274 334.884 228.808C334.884 228.422 334.991 228.084 335.207 227.794C335.423 227.504 335.722 227.278 336.102 227.116C336.483 226.952 336.919 226.869 337.411 226.869C338.118 226.869 338.675 227.023 339.081 227.33C339.487 227.634 339.756 228.041 339.886 228.553ZM344.471 226.955V227.977H340.895V226.955H344.471ZM341.854 225.386H343.128V231.578C343.128 231.825 343.165 232.011 343.239 232.136C343.313 232.259 343.408 232.342 343.525 232.388C343.644 232.43 343.773 232.452 343.912 232.452C344.015 232.452 344.104 232.445 344.181 232.43C344.257 232.416 344.317 232.405 344.36 232.396L344.59 233.449C344.516 233.477 344.411 233.506 344.275 233.534C344.138 233.565 343.968 233.582 343.763 233.585C343.428 233.591 343.115 233.531 342.826 233.406C342.536 233.281 342.301 233.088 342.123 232.827C341.944 232.565 341.854 232.237 341.854 231.842V225.386ZM353.202 230.786V226.955H354.48V233.5H353.228V232.366H353.159C353.009 232.716 352.767 233.007 352.435 233.24C352.105 233.47 351.695 233.585 351.203 233.585C350.783 233.585 350.411 233.493 350.087 233.308C349.766 233.121 349.513 232.844 349.328 232.477C349.147 232.111 349.056 231.658 349.056 231.118V226.955H350.33V230.964C350.33 231.411 350.453 231.766 350.701 232.03C350.948 232.294 351.269 232.426 351.664 232.426C351.902 232.426 352.14 232.366 352.375 232.247C352.614 232.128 352.811 231.947 352.968 231.706C353.127 231.464 353.205 231.158 353.202 230.786ZM356.192 235.955V226.955H357.437V228.016H357.543C357.617 227.879 357.724 227.722 357.863 227.543C358.002 227.364 358.195 227.207 358.442 227.074C358.69 226.938 359.016 226.869 359.423 226.869C359.951 226.869 360.423 227.003 360.837 227.27C361.252 227.537 361.577 227.922 361.813 228.425C362.052 228.928 362.171 229.533 362.171 230.24C362.171 230.947 362.053 231.554 361.817 232.06C361.582 232.562 361.258 232.95 360.846 233.223C360.434 233.493 359.964 233.628 359.435 233.628C359.038 233.628 358.712 233.561 358.46 233.428C358.21 233.294 358.013 233.138 357.871 232.959C357.729 232.78 357.62 232.621 357.543 232.482H357.467V235.955H356.192ZM357.441 230.227C357.441 230.687 357.508 231.091 357.641 231.438C357.775 231.784 357.968 232.055 358.221 232.251C358.474 232.445 358.783 232.541 359.15 232.541C359.531 232.541 359.849 232.44 360.104 232.239C360.36 232.034 360.553 231.757 360.684 231.408C360.817 231.058 360.884 230.665 360.884 230.227C360.884 229.795 360.819 229.408 360.688 229.064C360.56 228.72 360.367 228.449 360.109 228.25C359.853 228.051 359.533 227.952 359.15 227.952C358.781 227.952 358.468 228.047 358.212 228.237C357.96 228.428 357.768 228.693 357.637 229.034C357.506 229.375 357.441 229.773 357.441 230.227ZM366.049 233.628C365.521 233.628 365.049 233.493 364.634 233.223C364.222 232.95 363.898 232.562 363.663 232.06C363.43 231.554 363.313 230.947 363.313 230.24C363.313 229.533 363.431 228.928 363.667 228.425C363.906 227.922 364.232 227.537 364.647 227.27C365.062 227.003 365.532 226.869 366.058 226.869C366.464 226.869 366.79 226.938 367.038 227.074C367.288 227.207 367.481 227.364 367.617 227.543C367.756 227.722 367.864 227.879 367.941 228.016H368.018V224.773H369.292V233.5H368.048V232.482H367.941C367.864 232.621 367.754 232.78 367.609 232.959C367.467 233.138 367.271 233.294 367.021 233.428C366.771 233.561 366.447 233.628 366.049 233.628ZM366.33 232.541C366.697 232.541 367.006 232.445 367.259 232.251C367.515 232.055 367.708 231.784 367.839 231.438C367.972 231.091 368.039 230.687 368.039 230.227C368.039 229.773 367.974 229.375 367.843 229.034C367.712 228.693 367.521 228.428 367.268 228.237C367.015 228.047 366.702 227.952 366.33 227.952C365.947 227.952 365.627 228.051 365.371 228.25C365.116 228.449 364.923 228.72 364.792 229.064C364.664 229.408 364.6 229.795 364.6 230.227C364.6 230.665 364.665 231.058 364.796 231.408C364.927 231.757 365.12 232.034 365.376 232.239C365.634 232.44 365.952 232.541 366.33 232.541ZM373.015 233.645C372.6 233.645 372.225 233.568 371.89 233.415C371.555 233.259 371.289 233.033 371.093 232.737C370.9 232.442 370.804 232.08 370.804 231.651C370.804 231.281 370.875 230.977 371.017 230.739C371.159 230.5 371.35 230.311 371.592 230.172C371.833 230.033 372.103 229.928 372.402 229.857C372.7 229.786 373.004 229.732 373.314 229.695C373.706 229.649 374.024 229.612 374.268 229.584C374.512 229.553 374.69 229.503 374.801 229.435C374.912 229.366 374.967 229.256 374.967 229.102V229.072C374.967 228.7 374.862 228.412 374.652 228.207C374.444 228.003 374.135 227.901 373.723 227.901C373.294 227.901 372.956 227.996 372.708 228.186C372.464 228.374 372.295 228.582 372.201 228.812L371.004 228.54C371.146 228.142 371.353 227.821 371.626 227.577C371.902 227.33 372.218 227.151 372.576 227.04C372.934 226.926 373.311 226.869 373.706 226.869C373.967 226.869 374.244 226.901 374.537 226.963C374.832 227.023 375.108 227.134 375.363 227.295C375.622 227.457 375.833 227.689 375.998 227.99C376.163 228.288 376.245 228.676 376.245 229.153V233.5H375.001V232.605H374.95C374.868 232.77 374.744 232.932 374.579 233.091C374.414 233.25 374.203 233.382 373.944 233.487C373.686 233.592 373.376 233.645 373.015 233.645ZM373.292 232.622C373.645 232.622 373.946 232.553 374.196 232.413C374.449 232.274 374.64 232.092 374.771 231.868C374.904 231.641 374.971 231.398 374.971 231.139V230.295C374.926 230.341 374.838 230.384 374.707 230.423C374.579 230.46 374.433 230.493 374.268 230.521C374.103 230.547 373.943 230.571 373.787 230.594C373.63 230.614 373.5 230.631 373.395 230.645C373.147 230.676 372.922 230.729 372.717 230.803C372.515 230.876 372.353 230.983 372.231 231.122C372.112 231.259 372.052 231.44 372.052 231.668C372.052 231.983 372.169 232.222 372.402 232.384C372.635 232.543 372.931 232.622 373.292 232.622ZM380.998 226.955V227.977H377.423V226.955H380.998ZM378.381 225.386H379.656V231.578C379.656 231.825 379.692 232.011 379.766 232.136C379.84 232.259 379.935 232.342 380.052 232.388C380.171 232.43 380.3 232.452 380.44 232.452C380.542 232.452 380.631 232.445 380.708 232.43C380.785 232.416 380.844 232.405 380.887 232.396L381.117 233.449C381.043 233.477 380.938 233.506 380.802 233.534C380.665 233.565 380.495 233.582 380.29 233.585C379.955 233.591 379.643 233.531 379.353 233.406C379.063 233.281 378.829 233.088 378.65 232.827C378.471 232.565 378.381 232.237 378.381 231.842V225.386ZM385.158 233.632C384.513 233.632 383.958 233.494 383.492 233.219C383.029 232.94 382.671 232.55 382.418 232.047C382.168 231.541 382.043 230.949 382.043 230.27C382.043 229.599 382.168 229.009 382.418 228.497C382.671 227.986 383.023 227.587 383.475 227.3C383.929 227.013 384.461 226.869 385.069 226.869C385.438 226.869 385.796 226.93 386.142 227.053C386.489 227.175 386.8 227.366 387.076 227.628C387.351 227.889 387.569 228.229 387.728 228.646C387.887 229.061 387.966 229.565 387.966 230.159V230.611H382.763V229.656H386.718C386.718 229.321 386.65 229.024 386.513 228.766C386.377 228.504 386.185 228.298 385.938 228.148C385.694 227.997 385.407 227.922 385.077 227.922C384.719 227.922 384.407 228.01 384.14 228.186C383.875 228.359 383.671 228.587 383.526 228.868C383.384 229.146 383.313 229.449 383.313 229.776V230.521C383.313 230.959 383.39 231.331 383.543 231.638C383.699 231.945 383.917 232.179 384.195 232.341C384.473 232.5 384.799 232.58 385.171 232.58C385.412 232.58 385.632 232.545 385.831 232.477C386.03 232.406 386.202 232.301 386.347 232.162C386.492 232.023 386.603 231.851 386.679 231.646L387.885 231.864C387.789 232.219 387.615 232.53 387.365 232.797C387.118 233.061 386.807 233.267 386.432 233.415C386.06 233.56 385.635 233.632 385.158 233.632ZM394.285 228.553L393.13 228.757C393.082 228.609 393.005 228.469 392.9 228.335C392.798 228.202 392.658 228.092 392.482 228.007C392.306 227.922 392.086 227.879 391.822 227.879C391.461 227.879 391.16 227.96 390.918 228.122C390.677 228.281 390.556 228.487 390.556 228.74C390.556 228.959 390.637 229.135 390.799 229.268C390.961 229.402 391.222 229.511 391.583 229.597L392.623 229.835C393.225 229.974 393.674 230.189 393.969 230.479C394.265 230.768 394.413 231.145 394.413 231.608C394.413 232 394.299 232.349 394.072 232.656C393.847 232.96 393.533 233.199 393.13 233.372C392.729 233.545 392.265 233.632 391.737 233.632C391.004 233.632 390.406 233.476 389.942 233.163C389.479 232.848 389.195 232.401 389.09 231.821L390.322 231.634C390.398 231.955 390.556 232.197 390.795 232.362C391.033 232.524 391.344 232.605 391.728 232.605C392.146 232.605 392.479 232.518 392.729 232.345C392.979 232.169 393.104 231.955 393.104 231.702C393.104 231.497 393.028 231.325 392.874 231.186C392.724 231.047 392.492 230.942 392.18 230.871L391.072 230.628C390.461 230.489 390.009 230.267 389.717 229.963C389.427 229.659 389.282 229.274 389.282 228.808C389.282 228.422 389.39 228.084 389.606 227.794C389.822 227.504 390.12 227.278 390.501 227.116C390.881 226.952 391.317 226.869 391.809 226.869C392.516 226.869 393.073 227.023 393.479 227.33C393.886 227.634 394.154 228.041 394.285 228.553ZM399.092 233.5V224.773H400.366V228.016H400.442C400.516 227.879 400.623 227.722 400.762 227.543C400.901 227.364 401.094 227.207 401.342 227.074C401.589 226.938 401.915 226.869 402.322 226.869C402.85 226.869 403.322 227.003 403.737 227.27C404.151 227.537 404.477 227.922 404.712 228.425C404.951 228.928 405.07 229.533 405.07 230.24C405.07 230.947 404.952 231.554 404.717 232.06C404.481 232.562 404.157 232.95 403.745 233.223C403.333 233.493 402.863 233.628 402.335 233.628C401.937 233.628 401.612 233.561 401.359 233.428C401.109 233.294 400.913 233.138 400.771 232.959C400.629 232.78 400.519 232.621 400.442 232.482H400.336V233.5H399.092ZM400.34 230.227C400.34 230.687 400.407 231.091 400.54 231.438C400.674 231.784 400.867 232.055 401.12 232.251C401.373 232.445 401.683 232.541 402.049 232.541C402.43 232.541 402.748 232.44 403.004 232.239C403.259 232.034 403.452 231.757 403.583 231.408C403.717 231.058 403.783 230.665 403.783 230.227C403.783 229.795 403.718 229.408 403.587 229.064C403.46 228.72 403.266 228.449 403.008 228.25C402.752 228.051 402.433 227.952 402.049 227.952C401.68 227.952 401.367 228.047 401.112 228.237C400.859 228.428 400.667 228.693 400.536 229.034C400.406 229.375 400.34 229.773 400.34 230.227ZM409.322 233.632C408.677 233.632 408.122 233.494 407.656 233.219C407.193 232.94 406.835 232.55 406.582 232.047C406.332 231.541 406.207 230.949 406.207 230.27C406.207 229.599 406.332 229.009 406.582 228.497C406.835 227.986 407.187 227.587 407.639 227.3C408.093 227.013 408.625 226.869 409.233 226.869C409.602 226.869 409.96 226.93 410.306 227.053C410.653 227.175 410.964 227.366 411.24 227.628C411.515 227.889 411.733 228.229 411.892 228.646C412.051 229.061 412.13 229.565 412.13 230.159V230.611H406.927V229.656H410.882C410.882 229.321 410.814 229.024 410.677 228.766C410.541 228.504 410.349 228.298 410.102 228.148C409.858 227.997 409.571 227.922 409.241 227.922C408.883 227.922 408.571 228.01 408.304 228.186C408.039 228.359 407.835 228.587 407.69 228.868C407.548 229.146 407.477 229.449 407.477 229.776V230.521C407.477 230.959 407.554 231.331 407.707 231.638C407.863 231.945 408.081 232.179 408.359 232.341C408.637 232.5 408.963 232.58 409.335 232.58C409.576 232.58 409.797 232.545 409.995 232.477C410.194 232.406 410.366 232.301 410.511 232.162C410.656 232.023 410.767 231.851 410.843 231.646L412.049 231.864C411.953 232.219 411.779 232.53 411.529 232.797C411.282 233.061 410.971 233.267 410.596 233.415C410.224 233.56 409.799 233.632 409.322 233.632ZM416.659 226.955V227.977H412.96V226.955H416.659ZM413.974 233.5V226.196C413.974 225.787 414.064 225.447 414.243 225.178C414.422 224.905 414.659 224.702 414.955 224.568C415.25 224.432 415.571 224.364 415.918 224.364C416.173 224.364 416.392 224.385 416.574 224.428C416.756 224.467 416.891 224.504 416.979 224.538L416.68 225.57C416.621 225.553 416.544 225.533 416.45 225.51C416.357 225.484 416.243 225.472 416.109 225.472C415.8 225.472 415.578 225.548 415.445 225.702C415.314 225.855 415.249 226.077 415.249 226.366V233.5H413.974ZM420.473 233.632C419.859 233.632 419.324 233.491 418.866 233.21C418.409 232.929 418.054 232.536 417.801 232.03C417.548 231.524 417.422 230.933 417.422 230.257C417.422 229.578 417.548 228.984 417.801 228.476C418.054 227.967 418.409 227.572 418.866 227.291C419.324 227.01 419.859 226.869 420.473 226.869C421.087 226.869 421.622 227.01 422.08 227.291C422.537 227.572 422.892 227.967 423.145 228.476C423.398 228.984 423.524 229.578 423.524 230.257C423.524 230.933 423.398 231.524 423.145 232.03C422.892 232.536 422.537 232.929 422.08 233.21C421.622 233.491 421.087 233.632 420.473 233.632ZM420.477 232.562C420.875 232.562 421.205 232.457 421.466 232.247C421.727 232.037 421.92 231.757 422.045 231.408C422.173 231.058 422.237 230.673 422.237 230.253C422.237 229.835 422.173 229.452 422.045 229.102C421.92 228.75 421.727 228.467 421.466 228.254C421.205 228.041 420.875 227.935 420.477 227.935C420.077 227.935 419.744 228.041 419.48 228.254C419.219 228.467 419.024 228.75 418.896 229.102C418.771 229.452 418.709 229.835 418.709 230.253C418.709 230.673 418.771 231.058 418.896 231.408C419.024 231.757 419.219 232.037 419.48 232.247C419.744 232.457 420.077 232.562 420.477 232.562ZM424.946 233.5V226.955H426.178V227.994H426.246C426.365 227.642 426.576 227.365 426.877 227.163C427.181 226.959 427.525 226.857 427.908 226.857C427.988 226.857 428.081 226.859 428.189 226.865C428.3 226.871 428.387 226.878 428.449 226.886V228.105C428.398 228.091 428.307 228.075 428.176 228.058C428.046 228.038 427.915 228.028 427.784 228.028C427.483 228.028 427.215 228.092 426.979 228.22C426.746 228.345 426.561 228.52 426.425 228.744C426.289 228.966 426.221 229.219 426.221 229.503V233.5H424.946ZM432.138 233.632C431.494 233.632 430.938 233.494 430.472 233.219C430.009 232.94 429.651 232.55 429.398 232.047C429.148 231.541 429.023 230.949 429.023 230.27C429.023 229.599 429.148 229.009 429.398 228.497C429.651 227.986 430.004 227.587 430.455 227.3C430.91 227.013 431.441 226.869 432.049 226.869C432.418 226.869 432.776 226.93 433.123 227.053C433.469 227.175 433.781 227.366 434.056 227.628C434.332 227.889 434.549 228.229 434.708 228.646C434.867 229.061 434.947 229.565 434.947 230.159V230.611H429.744V229.656H433.698C433.698 229.321 433.63 229.024 433.494 228.766C433.357 228.504 433.165 228.298 432.918 228.148C432.674 227.997 432.387 227.922 432.058 227.922C431.7 227.922 431.387 228.01 431.12 228.186C430.856 228.359 430.651 228.587 430.506 228.868C430.364 229.146 430.293 229.449 430.293 229.776V230.521C430.293 230.959 430.37 231.331 430.523 231.638C430.68 231.945 430.897 232.179 431.175 232.341C431.454 232.5 431.779 232.58 432.151 232.58C432.393 232.58 432.613 232.545 432.812 232.477C433.011 232.406 433.183 232.301 433.327 232.162C433.472 232.023 433.583 231.851 433.66 231.646L434.866 231.864C434.769 232.219 434.596 232.53 434.346 232.797C434.099 233.061 433.788 233.267 433.413 233.415C433.04 233.56 432.616 233.632 432.138 233.632ZM440.81 224.773V233.5H439.536V224.773H440.81ZM444.429 233.645C444.015 233.645 443.64 233.568 443.304 233.415C442.969 233.259 442.703 233.033 442.507 232.737C442.314 232.442 442.218 232.08 442.218 231.651C442.218 231.281 442.289 230.977 442.431 230.739C442.573 230.5 442.765 230.311 443.006 230.172C443.248 230.033 443.517 229.928 443.816 229.857C444.114 229.786 444.418 229.732 444.728 229.695C445.12 229.649 445.438 229.612 445.682 229.584C445.926 229.553 446.104 229.503 446.215 229.435C446.326 229.366 446.381 229.256 446.381 229.102V229.072C446.381 228.7 446.276 228.412 446.066 228.207C445.858 228.003 445.549 227.901 445.137 227.901C444.708 227.901 444.37 227.996 444.123 228.186C443.878 228.374 443.709 228.582 443.615 228.812L442.418 228.54C442.56 228.142 442.767 227.821 443.04 227.577C443.316 227.33 443.632 227.151 443.99 227.04C444.348 226.926 444.725 226.869 445.12 226.869C445.381 226.869 445.658 226.901 445.951 226.963C446.246 227.023 446.522 227.134 446.777 227.295C447.036 227.457 447.248 227.689 447.412 227.99C447.577 228.288 447.659 228.676 447.659 229.153V233.5H446.415V232.605H446.364C446.282 232.77 446.158 232.932 445.993 233.091C445.828 233.25 445.617 233.382 445.358 233.487C445.1 233.592 444.79 233.645 444.429 233.645ZM444.706 232.622C445.059 232.622 445.36 232.553 445.61 232.413C445.863 232.274 446.054 232.092 446.185 231.868C446.319 231.641 446.385 231.398 446.385 231.139V230.295C446.34 230.341 446.252 230.384 446.121 230.423C445.993 230.46 445.847 230.493 445.682 230.521C445.517 230.547 445.357 230.571 445.201 230.594C445.044 230.614 444.914 230.631 444.809 230.645C444.561 230.676 444.336 230.729 444.131 230.803C443.929 230.876 443.767 230.983 443.645 231.122C443.526 231.259 443.466 231.44 443.466 231.668C443.466 231.983 443.583 232.222 443.816 232.384C444.049 232.543 444.346 232.622 444.706 232.622ZM453.503 230.786V226.955H454.781V233.5H453.528V232.366H453.46C453.31 232.716 453.068 233.007 452.736 233.24C452.406 233.47 451.996 233.585 451.504 233.585C451.084 233.585 450.712 233.493 450.388 233.308C450.067 233.121 449.814 232.844 449.629 232.477C449.447 232.111 449.357 231.658 449.357 231.118V226.955H450.631V230.964C450.631 231.411 450.754 231.766 451.001 232.03C451.249 232.294 451.57 232.426 451.964 232.426C452.203 232.426 452.44 232.366 452.676 232.247C452.915 232.128 453.112 231.947 453.268 231.706C453.428 231.464 453.506 231.158 453.503 230.786ZM457.767 229.614V233.5H456.493V226.955H457.716V228.02H457.797C457.948 227.673 458.184 227.395 458.505 227.185C458.828 226.974 459.236 226.869 459.728 226.869C460.174 226.869 460.564 226.963 460.9 227.151C461.235 227.335 461.495 227.611 461.679 227.977C461.864 228.344 461.956 228.797 461.956 229.337V233.5H460.682V229.49C460.682 229.016 460.559 228.645 460.311 228.378C460.064 228.108 459.725 227.973 459.293 227.973C458.998 227.973 458.735 228.037 458.505 228.165C458.277 228.293 458.097 228.48 457.963 228.727C457.833 228.972 457.767 229.267 457.767 229.614ZM466.422 233.632C465.789 233.632 465.243 233.489 464.786 233.202C464.331 232.912 463.982 232.513 463.738 232.004C463.493 231.496 463.371 230.913 463.371 230.257C463.371 229.592 463.496 229.006 463.746 228.497C463.996 227.986 464.348 227.587 464.803 227.3C465.257 227.013 465.793 226.869 466.409 226.869C466.907 226.869 467.35 226.962 467.739 227.146C468.128 227.328 468.442 227.584 468.681 227.913C468.922 228.243 469.066 228.628 469.111 229.068H467.871C467.803 228.761 467.647 228.497 467.402 228.276C467.161 228.054 466.837 227.943 466.431 227.943C466.076 227.943 465.765 228.037 465.498 228.224C465.233 228.409 465.027 228.673 464.88 229.017C464.732 229.358 464.658 229.761 464.658 230.227C464.658 230.705 464.73 231.116 464.875 231.463C465.02 231.81 465.225 232.078 465.489 232.268C465.756 232.459 466.07 232.554 466.431 232.554C466.672 232.554 466.891 232.51 467.087 232.422C467.286 232.331 467.452 232.202 467.586 232.034C467.722 231.866 467.817 231.665 467.871 231.429H469.111C469.066 231.852 468.928 232.23 468.698 232.562C468.468 232.895 468.159 233.156 467.773 233.347C467.39 233.537 466.939 233.632 466.422 233.632ZM471.748 229.614V233.5H470.474V224.773H471.731V228.02H471.812C471.965 227.668 472.2 227.388 472.515 227.18C472.83 226.973 473.242 226.869 473.751 226.869C474.2 226.869 474.592 226.962 474.927 227.146C475.265 227.331 475.526 227.607 475.711 227.973C475.898 228.337 475.992 228.791 475.992 229.337V233.5H474.718V229.49C474.718 229.01 474.594 228.638 474.347 228.374C474.1 228.107 473.756 227.973 473.316 227.973C473.015 227.973 472.745 228.037 472.506 228.165C472.271 228.293 472.085 228.48 471.948 228.727C471.815 228.972 471.748 229.267 471.748 229.614ZM478.532 233.581C478.299 233.581 478.099 233.499 477.931 233.334C477.763 233.166 477.68 232.964 477.68 232.729C477.68 232.496 477.763 232.297 477.931 232.132C478.099 231.964 478.299 231.881 478.532 231.881C478.765 231.881 478.965 231.964 479.133 232.132C479.3 232.297 479.384 232.496 479.384 232.729C479.384 232.885 479.344 233.028 479.265 233.159C479.188 233.287 479.086 233.389 478.958 233.466C478.83 233.543 478.688 233.581 478.532 233.581Z" fill="#A1A1AA"/>
<g filter="url(#filter1_dd_1475_2620)">
<g filter="url(#filter2_dd_1475_2620)">
<rect x="201" y="284.9" width="60" height="24" rx="7.2" fill="#AC44EE"/>
<rect x="201.6" y="285.5" width="58.8" height="22.8" rx="6.6" stroke="#B344ED" stroke-width="1.2"/>
<path d="M211.278 300.9H209.88L213.021 292.173H214.542L217.683 300.9H216.285L213.818 293.758H213.75L211.278 300.9ZM211.512 297.483H216.047V298.591H211.512V297.483ZM220.115 297.014V300.9H218.841V294.355H220.064V295.42H220.145C220.295 295.074 220.531 294.795 220.852 294.585C221.176 294.375 221.584 294.27 222.075 294.27C222.521 294.27 222.912 294.363 223.247 294.551C223.582 294.736 223.842 295.011 224.027 295.378C224.212 295.744 224.304 296.197 224.304 296.737V300.9H223.03V296.89C223.03 296.416 222.906 296.045 222.659 295.778C222.412 295.508 222.072 295.373 221.641 295.373C221.345 295.373 221.082 295.437 220.852 295.565C220.625 295.693 220.445 295.881 220.311 296.128C220.18 296.372 220.115 296.667 220.115 297.014ZM227.287 297.014V300.9H226.013V294.355H227.236V295.42H227.317C227.467 295.074 227.703 294.795 228.024 294.585C228.348 294.375 228.756 294.27 229.247 294.27C229.693 294.27 230.084 294.363 230.419 294.551C230.754 294.736 231.014 295.011 231.199 295.378C231.384 295.744 231.476 296.197 231.476 296.737V300.9H230.202V296.89C230.202 296.416 230.078 296.045 229.831 295.778C229.584 295.508 229.244 295.373 228.812 295.373C228.517 295.373 228.254 295.437 228.024 295.565C227.797 295.693 227.616 295.881 227.483 296.128C227.352 296.372 227.287 296.667 227.287 297.014ZM235.089 301.045C234.675 301.045 234.3 300.969 233.964 300.815C233.629 300.659 233.364 300.433 233.168 300.138C232.974 299.842 232.878 299.48 232.878 299.051C232.878 298.682 232.949 298.378 233.091 298.139C233.233 297.9 233.425 297.711 233.666 297.572C233.908 297.433 234.178 297.328 234.476 297.257C234.774 297.186 235.078 297.132 235.388 297.095C235.78 297.05 236.098 297.013 236.342 296.984C236.587 296.953 236.764 296.903 236.875 296.835C236.986 296.767 237.041 296.656 237.041 296.503V296.473C237.041 296.101 236.936 295.812 236.726 295.608C236.518 295.403 236.209 295.301 235.797 295.301C235.368 295.301 235.03 295.396 234.783 295.586C234.538 295.774 234.369 295.983 234.276 296.213L233.078 295.94C233.22 295.542 233.428 295.221 233.7 294.977C233.976 294.73 234.293 294.551 234.651 294.44C235.009 294.327 235.385 294.27 235.78 294.27C236.041 294.27 236.318 294.301 236.611 294.363C236.906 294.423 237.182 294.534 237.438 294.696C237.696 294.858 237.908 295.089 238.072 295.39C238.237 295.689 238.32 296.077 238.32 296.554V300.9H237.075V300.006H237.024C236.942 300.17 236.818 300.332 236.653 300.491C236.489 300.65 236.277 300.782 236.018 300.888C235.76 300.993 235.45 301.045 235.089 301.045ZM235.366 300.023C235.719 300.023 236.02 299.953 236.27 299.814C236.523 299.675 236.714 299.493 236.845 299.268C236.979 299.041 237.045 298.798 237.045 298.54V297.696C237 297.741 236.912 297.784 236.781 297.824C236.653 297.861 236.507 297.893 236.342 297.922C236.178 297.947 236.017 297.971 235.861 297.994C235.705 298.014 235.574 298.031 235.469 298.045C235.222 298.077 234.996 298.129 234.791 298.203C234.589 298.277 234.428 298.383 234.305 298.523C234.186 298.659 234.126 298.841 234.126 299.068C234.126 299.383 234.243 299.622 234.476 299.784C234.709 299.943 235.006 300.023 235.366 300.023ZM243.295 300.9V292.173H246.406C247.085 292.173 247.647 292.297 248.093 292.544C248.539 292.791 248.873 293.129 249.094 293.558C249.316 293.984 249.427 294.464 249.427 294.998C249.427 295.535 249.315 296.018 249.09 296.447C248.869 296.873 248.533 297.211 248.085 297.461C247.638 297.709 247.077 297.832 246.401 297.832H244.262V296.716H246.282C246.711 296.716 247.059 296.642 247.326 296.494C247.593 296.344 247.789 296.139 247.914 295.881C248.039 295.622 248.102 295.328 248.102 294.998C248.102 294.669 248.039 294.376 247.914 294.121C247.789 293.865 247.592 293.665 247.322 293.52C247.055 293.375 246.702 293.302 246.265 293.302H244.612V300.9H243.295ZM251.298 300.981C251.065 300.981 250.864 300.899 250.697 300.734C250.529 300.567 250.445 300.365 250.445 300.129C250.445 299.896 250.529 299.697 250.697 299.532C250.864 299.365 251.065 299.281 251.298 299.281C251.531 299.281 251.731 299.365 251.898 299.532C252.066 299.697 252.15 299.896 252.15 300.129C252.15 300.285 252.11 300.429 252.031 300.559C251.954 300.687 251.852 300.79 251.724 300.866C251.596 300.943 251.454 300.981 251.298 300.981Z" fill="#FAFAFA"/>
</g>
<path d="M267.551 264.997L254.496 278.051C253.74 278.807 254.276 280.1 255.345 280.1H261.501C262.137 280.1 262.748 280.353 263.198 280.803L267.551 285.156C268.307 285.912 269.599 285.376 269.599 284.307V265.846C269.599 264.776 268.307 264.241 267.551 264.997Z" fill="#AC44EE" stroke="#B344ED" stroke-width="1.2"/>
</g>
<g opacity="0.5">
<g opacity="0.7" filter="url(#filter3_f_1475_2620)">
<circle cx="180" cy="180" r="180" transform="matrix(-1 0 0 1 613 156)" fill="#BA46E0" fill-opacity="0.6"/>
</g>
</g>
<defs>
<filter id="filter0_dd_1475_2620" x="431" y="422.041" width="109" height="84.8594" filterUnits="userSpaceOnUse" color-interpolation-filters="sRGB">
<feFlood flood-opacity="0" result="BackgroundImageFix"/>
<feColorMatrix in="SourceAlpha" type="matrix" values="0 0 0 0 0 0 0 0 0 0 0 0 0 0 0 0 0 0 127 0" result="hardAlpha"/>
<feMorphology radius="5" operator="erode" in="SourceAlpha" result="effect1_dropShadow_1475_2620"/>
<feOffset dy="20"/>
<feGaussianBlur stdDeviation="12.5"/>
<feComposite in2="hardAlpha" operator="out"/>
<feColorMatrix type="matrix" values="0 0 0 0 0 0 0 0 0 0 0 0 0 0 0 0 0 0 0.1 0"/>
<feBlend mode="normal" in2="BackgroundImageFix" result="effect1_dropShadow_1475_2620"/>
<feColorMatrix in="SourceAlpha" type="matrix" values="0 0 0 0 0 0 0 0 0 0 0 0 0 0 0 0 0 0 127 0" result="hardAlpha"/>
<feMorphology radius="6" operator="erode" in="SourceAlpha" result="effect2_dropShadow_1475_2620"/>
<feOffset dy="8"/>
<feGaussianBlur stdDeviation="5"/>
<feComposite in2="hardAlpha" operator="out"/>
<feColorMatrix type="matrix" values="0 0 0 0 0 0 0 0 0 0 0 0 0 0 0 0 0 0 0.1 0"/>
<feBlend mode="normal" in2="effect1_dropShadow_1475_2620" result="effect2_dropShadow_1475_2620"/>
<feBlend mode="normal" in="SourceGraphic" in2="effect2_dropShadow_1475_2620" result="shape"/>
</filter>
<filter id="filter1_dd_1475_2620" x="181" y="264.041" width="109.199" height="84.8594" filterUnits="userSpaceOnUse" color-interpolation-filters="sRGB">
<feFlood flood-opacity="0" result="BackgroundImageFix"/>
<feColorMatrix in="SourceAlpha" type="matrix" values="0 0 0 0 0 0 0 0 0 0 0 0 0 0 0 0 0 0 127 0" result="hardAlpha"/>
<feMorphology radius="5" operator="erode" in="SourceAlpha" result="effect1_dropShadow_1475_2620"/>
<feOffset dy="20"/>
<feGaussianBlur stdDeviation="12.5"/>
<feComposite in2="hardAlpha" operator="out"/>
<feColorMatrix type="matrix" values="0 0 0 0 0 0 0 0 0 0 0 0 0 0 0 0 0 0 0.1 0"/>
<feBlend mode="normal" in2="BackgroundImageFix" result="effect1_dropShadow_1475_2620"/>
<feColorMatrix in="SourceAlpha" type="matrix" values="0 0 0 0 0 0 0 0 0 0 0 0 0 0 0 0 0 0 127 0" result="hardAlpha"/>
<feMorphology radius="6" operator="erode" in="SourceAlpha" result="effect2_dropShadow_1475_2620"/>
<feOffset dy="8"/>
<feGaussianBlur stdDeviation="5"/>
<feComposite in2="hardAlpha" operator="out"/>
<feColorMatrix type="matrix" values="0 0 0 0 0 0 0 0 0 0 0 0 0 0 0 0 0 0 0.1 0"/>
<feBlend mode="normal" in2="effect1_dropShadow_1475_2620" result="effect2_dropShadow_1475_2620"/>
<feBlend mode="normal" in="SourceGraphic" in2="effect2_dropShadow_1475_2620" result="shape"/>
</filter>
<filter id="filter2_dd_1475_2620" x="137" y="220.9" width="188" height="152" filterUnits="userSpaceOnUse" color-interpolation-filters="sRGB">
<feFlood flood-opacity="0" result="BackgroundImageFix"/>
<feColorMatrix in="SourceAlpha" type="matrix" values="0 0 0 0 0 0 0 0 0 0 0 0 0 0 0 0 0 0 127 0" result="hardAlpha"/>
<feOffset/>
<feGaussianBlur stdDeviation="32"/>
<feColorMatrix type="matrix" values="0 0 0 0 0.309804 0 0 0 0 0.27451 0 0 0 0 0.898039 0 0 0 1 0"/>
<feBlend mode="normal" in2="BackgroundImageFix" result="effect1_dropShadow_1475_2620"/>
<feColorMatrix in="SourceAlpha" type="matrix" values="0 0 0 0 0 0 0 0 0 0 0 0 0 0 0 0 0 0 127 0" result="hardAlpha"/>
<feOffset/>
<feGaussianBlur stdDeviation="4"/>
<feColorMatrix type="matrix" values="0 0 0 0 0.654902 0 0 0 0 0.545098 0 0 0 0 0.980392 0 0 0 0.8 0"/>
<feBlend mode="normal" in2="effect1_dropShadow_1475_2620" result="effect2_dropShadow_1475_2620"/>
<feBlend mode="normal" in="SourceGraphic" in2="effect2_dropShadow_1475_2620" result="shape"/>
</filter>
<filter id="filter3_f_1475_2620" x="-147" y="-244" width="1160" height="1160" filterUnits="userSpaceOnUse" color-interpolation-filters="sRGB">
<feFlood flood-opacity="0" result="BackgroundImageFix"/>
<feBlend mode="normal" in="SourceGraphic" in2="BackgroundImageFix" result="shape"/>
<feGaussianBlur stdDeviation="200" result="effect1_foregroundBlur_1475_2620"/>
</filter>
<linearGradient id="paint0_linear_1475_2620" x1="558.5" y1="384.5" x2="558.5" y2="352.5" gradientUnits="userSpaceOnUse">
<stop stop-color="#09090B" stop-opacity="0.05"/>
<stop offset="1" stop-color="#09090B" stop-opacity="0.1"/>
</linearGradient>
<linearGradient id="paint1_linear_1475_2620" x1="558.5" y1="352.5" x2="558.5" y2="384.5" gradientUnits="userSpaceOnUse">
<stop stop-color="#09090B" stop-opacity="0.2"/>
<stop offset="0.16" stop-color="#09090B" stop-opacity="0.05"/>
<stop offset="0.86" stop-color="#09090B" stop-opacity="0.05"/>
<stop offset="1" stop-color="#09090B" stop-opacity="0"/>
</linearGradient>
<linearGradient id="paint2_linear_1475_2620" x1="636" y1="424.5" x2="636" y2="392.5" gradientUnits="userSpaceOnUse">
<stop stop-color="#09090B" stop-opacity="0.05"/>
<stop offset="1" stop-color="#09090B" stop-opacity="0.1"/>
</linearGradient>
<linearGradient id="paint3_linear_1475_2620" x1="636" y1="392.5" x2="636" y2="424.5" gradientUnits="userSpaceOnUse">
<stop stop-color="#09090B" stop-opacity="0.2"/>
<stop offset="0.16" stop-color="#09090B" stop-opacity="0.05"/>
<stop offset="0.86" stop-color="#09090B" stop-opacity="0.05"/>
<stop offset="1" stop-color="#09090B" stop-opacity="0"/>
</linearGradient>
<linearGradient id="paint4_linear_1475_2620" x1="347" y1="245.5" x2="347" y2="213.5" gradientUnits="userSpaceOnUse">
<stop stop-color="#09090B" stop-opacity="0.05"/>
<stop offset="1" stop-color="#09090B" stop-opacity="0.1"/>
</linearGradient>
<linearGradient id="paint5_linear_1475_2620" x1="347" y1="213.5" x2="347" y2="245.5" gradientUnits="userSpaceOnUse">
<stop stop-color="#09090B" stop-opacity="0.2"/>
<stop offset="0.16" stop-color="#09090B" stop-opacity="0.05"/>
<stop offset="0.86" stop-color="#09090B" stop-opacity="0.05"/>
<stop offset="1" stop-color="#09090B" stop-opacity="0"/>
</linearGradient>
</defs>
</svg>
