<svg width="42" height="41" viewBox="0 0 42 41" fill="none" xmlns="http://www.w3.org/2000/svg">
<path d="M12.2459 0C5.99073 0 0.919922 5.16649 0.919922 11.5397V29.2338C0.919922 35.607 5.99073 40.7735 12.2459 40.7735H17.8271V24.7163H14.5111V20.5321H17.8271V17.1471C17.8271 14.6084 18.4499 12.7905 19.6953 11.6935C20.9719 10.5652 22.7623 10.001 25.0664 10.001H27.4951V14.2323H25.8137C24.7239 14.2323 23.9455 14.4673 23.4785 14.9375C23.0114 15.3763 22.7779 16.1285 22.7779 17.1941V20.5321H28.1022V24.7163H22.7779V40.7735H30.3674C36.6226 40.7735 41.6934 35.607 41.6934 29.2338V11.5397C41.6934 5.16648 36.6226 0 30.3674 0H12.2459Z" fill="url(#paint0_linear_590_1220)"/>
<defs>
<linearGradient id="paint0_linear_590_1220" x1="6.59793" y1="-39.924" x2="-27.1553" y2="-16.4845" gradientUnits="userSpaceOnUse">
<stop stop-color="#8A38EE"/>
<stop offset="1" stop-color="#D64FED"/>
</linearGradient>
</defs>
</svg>
