<svg width="91" height="91" viewBox="0 0 91 91" fill="none" xmlns="http://www.w3.org/2000/svg">
<rect width="91" height="91" rx="45.5" fill="url(#paint0_linear_333_5754)"/>
<path fill-rule="evenodd" clip-rule="evenodd" d="M38.049 21.0781C35.7587 21.0781 33.902 22.9348 33.902 25.2252V33.0585H27.9118C24.0945 33.0585 21 36.153 21 39.9703V47.3428V55.6369V63.0095C21 66.8268 24.0945 69.9213 27.9118 69.9213H61.0882C64.9055 69.9213 68 66.8268 68 63.0095V55.6369V47.3428V39.9703C68 36.153 64.9055 33.0585 61.0882 33.0585H55.098V25.2252C55.098 22.9348 53.2413 21.0781 50.951 21.0781H38.049ZM25.6078 55.1762V47.8036H34.8235V55.1762H25.6078ZM39.4314 55.1762H49.5686V47.8036H39.4314V55.1762ZM54.1765 47.8036V55.1762H63.3922V47.8036H54.1765ZM50.0294 59.784H38.9706H25.6078V63.0095C25.6078 64.2819 26.6393 65.3134 27.9118 65.3134H61.0882C62.3607 65.3134 63.3922 64.2819 63.3922 63.0095V59.784H50.0294ZM38.9706 43.1958H50.0294H63.3922V39.9703C63.3922 38.6979 62.3607 37.6664 61.0882 37.6664H50.951H38.049H27.9118C26.6393 37.6664 25.6078 38.6979 25.6078 39.9703V43.1958H38.9706ZM50.4902 33.0585V25.686H38.5098V33.0585H50.4902Z" fill="white"/>
<defs>
<linearGradient id="paint0_linear_333_5754" x1="12.6724" y1="-89.1042" x2="-62.6595" y2="-36.7907" gradientUnits="userSpaceOnUse">
<stop stop-color="#8A38EE"/>
<stop offset="1" stop-color="#D64FED"/>
</linearGradient>
</defs>
</svg>
