<svg width="91" height="91" viewBox="0 0 91 91" fill="none" xmlns="http://www.w3.org/2000/svg">
<rect width="91" height="91" rx="45.5" fill="url(#paint0_linear_926_2613)"/>
<path d="M28.5914 62.7046L41.3194 49.9766M57.3474 44.3166L53.5374 55.7486C53.4763 55.9315 53.3721 56.0969 53.2335 56.2309C53.095 56.365 52.9262 56.4636 52.7414 56.5186L29.3854 63.4626C29.175 63.5251 28.9514 63.5287 28.7391 63.473C28.5268 63.4172 28.3339 63.3044 28.1812 63.1466C28.0286 62.9888 27.9222 62.7922 27.8736 62.5782C27.8249 62.3641 27.8359 62.1408 27.9054 61.9326L35.4894 39.1846C35.5437 39.0213 35.6326 38.8715 35.7499 38.7456C35.8673 38.6196 36.0103 38.5204 36.1694 38.4546L46.9434 34.0186C47.1624 33.9281 47.4033 33.9046 47.6358 33.9508C47.8682 33.9971 48.0817 34.1112 48.2494 34.2786L57.0574 43.0886C57.215 43.2462 57.3256 43.4445 57.3768 43.6614C57.428 43.8783 57.4179 44.1052 57.3474 44.3166Z" stroke="white" stroke-width="3" stroke-linecap="round" stroke-linejoin="round"/>
<path d="M58.8049 27.8641L63.5329 32.5921C63.8882 32.932 64.172 33.3395 64.3677 33.7906C64.5633 34.2417 64.6669 34.7273 64.6724 35.219C64.6778 35.7107 64.585 36.1985 64.3993 36.6538C64.2137 37.1091 63.9389 37.5228 63.5912 37.8705C63.2435 38.2182 62.8299 38.4929 62.3746 38.6786C61.9193 38.8642 61.4315 38.9571 60.9398 38.9516C60.4481 38.9462 59.9625 38.8426 59.5114 38.6469C59.0603 38.4512 58.6528 38.1674 58.3129 37.8121L53.5829 33.0841C52.9157 32.3868 52.5482 31.456 52.5588 30.491C52.5695 29.526 52.9576 28.6036 53.64 27.9212C54.3223 27.2388 55.2448 26.8507 56.2098 26.8401C57.1748 26.8294 58.1076 27.197 58.8049 27.8641Z" fill="white" stroke="white" stroke-width="3" stroke-linecap="round" stroke-linejoin="round"/>
<path d="M45.5622 45.7323C45.2854 45.4457 44.9544 45.2172 44.5884 45.06C44.2224 44.9027 43.8287 44.82 43.4304 44.8165C43.032 44.8131 42.637 44.889 42.2683 45.0398C41.8996 45.1906 41.5647 45.4134 41.283 45.6951C41.0013 45.9768 40.7785 46.3117 40.6277 46.6804C40.4769 47.0491 40.4009 47.4441 40.4044 47.8425C40.4079 48.2408 40.4906 48.6345 40.6479 49.0005C40.8051 49.3665 41.0336 49.6975 41.3202 49.9743C41.886 50.5207 42.6438 50.8231 43.4304 50.8163C44.217 50.8095 44.9694 50.494 45.5256 49.9377C46.0818 49.3815 46.3973 48.6291 46.4042 47.8425C46.411 47.0559 46.1086 46.2981 45.5622 45.7323Z" stroke="white" stroke-width="3" stroke-linecap="round" stroke-linejoin="round"/>
<defs>
<linearGradient id="paint0_linear_926_2613" x1="12.6724" y1="-89.1042" x2="-62.6595" y2="-36.7907" gradientUnits="userSpaceOnUse">
<stop stop-color="#8A38EE"/>
<stop offset="1" stop-color="#D64FED"/>
</linearGradient>
</defs>
</svg>
