<svg width="91" height="91" viewBox="0 0 91 91" fill="none" xmlns="http://www.w3.org/2000/svg">
<rect width="91" height="91" rx="45.5" fill="url(#paint0_linear_333_5744)"/>
<path fill-rule="evenodd" clip-rule="evenodd" d="M27.5 25C23.3579 25 20 28.3579 20 32.5V57.5C20 61.6421 23.3579 65 27.5 65H63.5C67.6421 65 71 61.6421 71 57.5V32.5C71 28.3579 67.6421 25 63.5 25H27.5ZM25 32.5C25 31.1193 26.1193 30 27.5 30H63.5C64.8807 30 66 31.1193 66 32.5V57.5C66 58.8807 64.8807 60 63.5 60H27.5C26.1193 60 25 58.8807 25 57.5V32.5ZM58.2376 40.2974C59.2303 39.3378 59.2571 37.7551 58.2975 36.7624C57.3378 35.7697 55.7552 35.7428 54.7624 36.7025L45.1207 46.0228L38.2376 39.3691C37.2448 38.4095 35.6622 38.4363 34.7025 39.429C33.7429 40.4218 33.7697 42.0044 34.7624 42.9641L45.1207 52.977L58.2376 40.2974Z" fill="white"/>
<defs>
<linearGradient id="paint0_linear_333_5744" x1="12.6724" y1="-89.1042" x2="-62.6595" y2="-36.7907" gradientUnits="userSpaceOnUse">
<stop stop-color="#8A38EE"/>
<stop offset="1" stop-color="#D64FED"/>
</linearGradient>
</defs>
</svg>
