<svg width="756" height="496" viewBox="0 0 756 496" fill="none" xmlns="http://www.w3.org/2000/svg">
<g opacity="0.5">
<g opacity="0.7" filter="url(#filter0_f_1475_965)">
<circle cx="180" cy="180" r="180" transform="matrix(-1 0 0 1 558 132)" fill="#BA46E0" fill-opacity="0.6"/>
</g>
</g>
<path d="M206.863 327.514L206.871 327.652L207.217 328.751L205.73 339.163L204.208 312.889L205.37 301.99L206.863 327.514ZM326.822 150.079L325.942 150.822L309.259 154.758L309.736 154.569L330.82 146.398L343.497 143.633L326.822 150.079ZM412.796 142.6L411.295 142.716L406.395 141.261L425.336 144.84L426.267 145.161L412.796 142.6ZM346.015 479.803L346.795 480.13L378.132 485.289L363.78 486.766L333.785 481.84L346.015 479.803ZM328.994 481.055L296.365 467.201L307.405 463.337L307.499 463.403L344.118 478.995L330.387 481.28L328.994 481.055ZM236.714 415.257L242.299 405.769L271.154 437.267L262.56 443.903L261.709 443.299L238.742 418.24L236.714 415.257ZM220.479 369.104L241.534 404.917L236.079 414.173L217.239 382.092L217.073 381.561L220.479 369.104ZM219.447 367.293L219.483 367.409L219.729 367.824L216.467 379.64L206.199 347.203L206.055 344.693L207.989 331.167L219.447 367.293ZM269.906 180.493L267.525 182.247L270.202 179.999L269.906 180.493ZM357.185 140.664L358.809 140.548L382.418 145.714L360.432 154.256L360.086 154.547L330.798 150.916L357.185 140.664ZM509.066 204.832L493.379 187.849L496.143 182.072L516.469 204.024L509.066 204.832ZM542.77 258.173L528.151 245.767L528.122 245.44L521.599 226.275L533.577 231.688L533.844 232.132L539.523 248.7L542.77 258.173ZM549.632 279.223L551.912 304.296L548.246 290.493L548.441 289.482L548.47 289.329L546.745 270.302L549.632 279.223ZM547.618 341.659L543.13 316.76L543.448 316.178L547.777 293.011L552.503 310.837L552.778 313.857L547.618 341.659ZM455.259 466.561L435.07 475.365L446.702 468.409L447.777 468.299L447.943 468.278L464.834 460.922L455.259 466.561ZM389.879 484.067L408.445 472.309L409 472.403L444.082 468.685L427.082 478.85L423.301 480.494L389.879 484.067ZM219.166 268.265L221.439 306.224L221.446 306.363L221.547 306.661L208.927 325.069L206.798 288.747L207.094 287.459L219.166 268.265ZM225.934 235.028L219.043 265.471L219.007 265.624L219.058 266.424L207.83 284.229L214.772 253.691L225.934 235.028ZM286.913 197.265L286.826 197.418L286.776 197.629L255.734 208.586L272.308 180.77L273.023 180.173L301.856 172.017L286.913 197.265ZM340.135 172.068L327.746 193.219L289.575 197.098L304.649 171.617L304.836 171.464L340.135 172.068ZM413.293 162.631L412.889 162.791L387.707 146.681L412.673 144.833L413.257 144.95L431.051 161.277L413.293 162.631ZM472.808 173.428L453.982 165.104L453.426 164.995L443.88 151.367L469.597 162.718L469.9 162.943L472.808 173.428ZM492.491 187.173L474.474 174.163L474.113 174.003L471.328 163.969L495.313 181.25L492.491 187.173ZM532.134 373.106L510.776 392.584L511.894 356.328L511.974 356.299L529.746 340.204L532.365 372.677L532.134 373.106ZM499.173 426.855L468.507 440.148L481.004 408.323L509.058 396.317L499.628 426.44L499.173 426.855ZM234.622 347.698L234.65 347.778L221.114 365.255L209.05 327.245L209.028 326.859L221.958 307.971L234.622 347.698ZM244.579 245.454L244.55 245.614L244.565 245.876L221.677 263.79L229.484 229.294L230.04 228.377L252.127 211.759L244.579 245.454ZM279.683 229.862L279.654 229.985L247.061 244.472L254.702 210.325L254.847 210.078L286.494 198.902L279.683 229.862ZM546.247 289.22L541.723 313.435L526.21 285.335L526.231 285.298L529.601 267.792L546.197 288.704L546.247 289.22ZM517.371 301.444L517.392 301.422L525.582 286.477L541.399 315.138L541.348 315.421L529.998 336.318L517.371 301.444ZM529.277 337.65L511.606 353.643L503.871 313.544L516.483 302.237L529.298 337.613L529.277 337.65ZM509.564 393.698L481.618 405.703L487.693 366.609L510.776 356.808L509.643 393.618L509.564 393.698ZM466.97 440.81L430.914 444.543L447.055 411.75L479.763 408.468L467.107 440.752L466.97 440.81ZM447.38 466.109L410.761 469.98L429.521 446.879L429.666 446.908L465.549 443.19L448.022 465.826L447.38 466.109ZM289.597 421.572L325.891 447.526L308.559 461.445L273.687 436.554L289.597 421.572ZM258.318 387.622L288.767 420.838L272.842 435.834L243.605 403.95L258.318 387.622ZM235.242 348.804L257.603 386.771L242.963 403.011L221.525 366.529L235.242 348.804ZM247.018 285.182L223.546 304.602L221.222 265.813L221.294 265.5L244.644 247.193L247.018 285.182ZM372.259 198.327L368.506 216.212L324.318 219.515L329.744 194.325L372.259 198.327ZM372.569 197.25L330.271 193.27L342.545 172.33L381.191 182.349L372.569 197.25ZM473.161 175.982L470.434 196.937L460.671 192.615L460.541 192.594L454.502 167.753L473.161 175.982ZM489.382 213.258L481.567 204.781L492.189 189.814L506.749 205.545L489.382 213.258ZM495.803 223.764L490.031 214.182L507.471 206.411L518.352 224.375L495.803 223.764ZM499.577 234.839L496.229 224.885L518.994 225.46L525.474 244.414L499.577 234.839ZM527.725 265.886L524.456 283.123L498.56 255.677L500.299 246.917L527.725 265.849V265.886ZM487.816 364.149L486.625 320.762L502.853 314.024L510.646 354.458L487.816 364.149ZM480.449 406.169L447.928 409.429L459.798 369.33L486.56 366.754L480.449 406.169ZM429.644 444.652L390.954 438.155L410.948 405.587L445.915 411.582L429.644 444.652ZM247.371 286.317L259.883 325.281L236.397 346.003L223.632 305.962L247.371 286.317ZM282.28 266.599L293.659 301.728L261.745 323.862L249.262 284.993L282.28 266.599ZM324.261 250.104L333.612 278.779L295.586 300.527L284.286 265.653L324.261 250.104ZM429.99 194.98L397.852 171.049L413.618 164.828L438.021 191.815L429.99 194.98ZM516.144 299.116L493.935 264.176L498.055 256.754L524.197 284.432L516.144 299.116ZM460.289 367.053L466.783 322.741L485.543 321.017L486.734 364.506L460.289 367.053ZM446.774 409.472L412.016 403.55L430.135 364.229L458.694 369.214L446.774 409.472ZM389.821 437.907L351.398 421.478L375.166 390.292L409.88 405.23L389.821 437.907ZM349.941 423.239L388.45 439.734L368.146 463.359L328.59 446.5L349.941 423.239ZM260.41 326.285L282.302 363.327L259.205 385.148L236.801 347.102L260.41 326.285ZM294.179 302.71L313.95 336.093L283.976 361.828L262.163 324.909L294.179 302.71ZM334.11 279.761L350.302 306.996L315.667 334.667L296.026 301.546L334.11 279.761ZM370.195 238.055L376.804 258.144L335.596 277.746L326.324 249.442L370.195 238.055ZM417.551 210.522L415.74 219.399L370.75 216.226L374.423 198.727L417.551 210.522ZM422.133 202.067L417.911 209.467L374.856 197.701L383.298 183.113L422.133 202.067ZM422.775 201.15L384.114 182.291L396.676 171.551L429.096 195.693L422.775 201.15ZM461.609 226.522L460.815 195.104L469.979 199.135L461.609 226.522ZM465.375 231.07L497.449 235.45L498.235 244.552L465.375 231.07ZM486.871 270.528L493.148 264.969L515.502 300.149L503.156 311.216L486.871 270.528ZM459.177 367.053L430.957 362.149L445.684 319.089L465.686 322.661L459.177 367.053ZM410.934 403.273L376.458 388.466L400.753 351.649L429.074 363.902L410.934 403.273ZM350.403 420.961L315.09 395.713L342.285 366.863L374.207 389.74L350.403 420.961ZM313.553 397.307L348.974 422.664L327.558 445.998L291.184 420.015L313.553 397.307ZM282.995 364.186L312.723 396.579L290.347 419.295L259.847 386.058L282.995 364.186ZM314.635 336.959L341.448 366.143L314.253 394.986L284.625 362.723L314.635 336.959ZM350.987 307.869L372.893 331.691L342.949 364.513L316.323 335.562L350.987 307.869ZM377.288 259.134L388.674 278.211L352.062 305.642L336.051 278.757L377.288 259.134ZM457.02 226.202L424.745 202.373L430.755 197.178L457.02 226.202ZM458.016 225.649L431.772 196.654L439.378 193.619L458.016 225.649ZM459.235 225.554L440.561 193.459L449.263 192.768L459.235 225.554ZM462.525 227.271L470.939 199.746L479.395 205.836L462.525 227.271ZM463.333 228.043L480.218 206.578L487.361 214.298L463.333 228.043ZM464.105 228.872L488.061 215.179L493.386 223.983L464.105 228.872ZM493.949 225.016L497.102 234.293L464.834 229.876L493.949 225.016ZM465.541 232.336L498.286 245.775L496.669 254.127L465.541 232.336ZM477.851 274.333L485.904 271.059L502.247 311.878L486.365 318.528L477.851 274.333ZM429.904 361.85L401.915 349.765L424.788 310.153L444.623 318.79L429.904 361.85ZM389.352 279.085L404.721 295.783L374.373 330.039L352.719 306.523L389.352 279.085ZM416.678 231.368L419.99 241.373L378.839 257.271L372.345 237.64L416.678 231.368ZM465.253 233.485L496.366 255.255L492.455 262.306L465.253 233.485ZM467.461 275.439L476.783 274.624L485.305 318.812L466.948 320.493L467.461 275.439ZM456.414 273.569L466.371 275.396L465.859 320.442L446.283 316.971L456.414 273.569ZM420.466 242.377L426.159 251.908L390.463 276.916L379.315 258.275L420.466 242.377ZM422.075 240.667L418.914 231.208L456.984 230.553L422.075 240.667ZM484.901 269.08L477.252 272.23L463.499 234.751L484.901 269.08ZM464.531 234.322L491.799 263.208L485.832 268.498L464.531 234.322ZM426.83 252.781L434.522 261.142L406.179 294.11L391.134 277.797L426.83 252.781ZM427.992 250.671L422.587 241.671L457.669 231.513L427.992 250.671ZM467.338 273.22L462.323 234.751L476.163 272.449L467.338 273.22ZM435.958 259.439L428.67 251.552L458.42 232.343L435.958 259.439ZM461.169 234.388L466.22 273.111L456.796 271.416L461.169 234.388ZM446.37 266.955L460.13 233.798L455.728 271.044L446.37 266.955ZM445.417 266.38L436.78 260.174L459.228 233.1L445.417 266.38ZM424.874 307.665L407.009 294.837L435.359 261.855L444.486 268.432L424.874 307.665ZM445.237 316.644L425.827 308.218L445.461 268.949L455.353 273.293L445.237 316.644ZM400.955 349.226L375.202 330.767L405.558 296.504L423.814 309.63L400.955 349.226ZM456.464 229.454L418.633 230.102L417.904 220.854L456.464 229.454ZM420.004 210.245L424.023 203.217L456.414 227.126L420.004 210.245ZM456.24 228.268L417.919 219.719L419.643 211.3L456.24 228.268ZM375.484 387.935L343.786 365.248L373.73 332.411L399.786 351.111L375.484 387.935ZM460.49 225.896L450.468 192.95L459.704 194.667L460.49 225.896ZM415.667 220.505L416.439 230.277L372.107 236.556L370.678 217.325L415.667 220.505ZM474.178 176.681L491.373 189.065L480.709 204.075L471.48 197.41L474.178 176.681ZM368.47 217.318L369.935 236.985L326.129 248.35L324.188 220.628L368.47 217.318ZM409.058 470.162L369.387 463.585L389.547 440.141L428.273 446.668L409.246 470.14L409.058 470.162ZM525.943 245.775L527.602 264.445L500.537 245.731L500.544 245.702L499.714 236.068L525.921 245.724L525.943 245.775ZM453.239 167.193L459.358 192.368L449.552 190.52L449.501 190.527L434.349 163.642L453.217 167.185L453.239 167.193ZM432.934 163.373L448.289 190.622L439.248 191.335L439.125 191.386L415.011 164.719L432.869 163.365L432.934 163.373ZM322.009 220.97L323.972 249.027L284.128 264.532L281.884 230.407L322.009 220.97ZM279.726 231.157L281.985 265.507L249.139 283.807L246.765 245.818L279.726 231.157ZM347.401 477.984L309.663 461.94L326.865 448.152L366.255 464.96L347.617 478.02L347.401 477.984ZM385.867 146.82L411.634 163.278L395.63 169.543L395.529 169.63L363.174 155.558L385.47 146.849L385.867 146.82ZM361.709 156.133L394.605 170.416L381.79 181.366L343.548 171.442L361.565 156.191L361.709 156.133ZM327.486 194.354L321.995 219.835L282.078 229.236L288.89 198.283L327.486 194.354ZM349.176 478.275L367.453 465.469L367.496 465.484L406.807 472.032L387.39 484.336L386.545 484.423L349.176 478.275ZM480.543 451.659L450.064 464.938L467.071 443.03L467.36 443.001L497.413 430.027L482.556 449.818L480.543 451.659ZM501.244 424.956L510.393 395.75L510.769 395.589L531.766 376.431L525.156 402.16L524.226 403.892L501.244 424.956ZM533.324 370.894L530.777 339.272L531.023 339.047L542.293 318.31L547.048 344.715L546.832 345.872L533.324 370.894ZM543.679 260.829L546.017 286.703L529.875 266.366L529.947 266.002L528.288 247.339L543.469 260.218L543.679 260.829ZM328.619 151.767L358.931 155.522L341.015 170.693L340.871 170.816L340.777 170.969L306.135 170.372L327.955 152.022L328.619 151.767ZM252.559 194.769L254.183 193.416L268.455 182.931L252.632 209.489L252.495 210.093L231.54 225.86L247.682 198.858L252.559 194.769ZM294.576 466.444L286.473 460.965L263.498 444.572L271.977 438.024L306.301 462.551L294.85 466.561L294.576 466.444ZM506.418 427.91L490.262 442.739L486.993 445.736L499.455 429.147L500.378 428.747L517.32 413.219L506.418 427.91ZM540.554 373.572L533.332 386.982L527.328 398.129L533.245 375.078L533.887 374.496L545.028 353.854L540.554 373.572ZM517.428 205.057L532.56 230.014L521.108 224.834L521.022 224.572L509.722 205.872L517.407 205.043L517.428 205.057ZM441.355 150.254L441.932 150.509L451.875 164.704L432.992 161.132L432.53 161.168L415.307 145.335L441.355 150.254ZM395.579 139.216L408.17 142.949L385.146 144.651L384.287 144.986L362.698 140.264L390.37 138.234L395.579 139.216ZM298.263 159.022L301.77 157.661L324.059 152.408L302.953 170.161L302.672 170.634L275.101 178.434L298.263 159.022ZM293.443 468.35L328.258 483.15L363.715 489L386.48 486.664L386.618 486.65H386.625L423.871 482.67L456.19 468.569C456.197 468.569 456.197 468.569 456.197 468.561L481.647 453.602L481.755 453.551L507.976 429.482L525.921 405.339L525.979 405.281L542.56 374.496C542.647 374.336 542.676 374.154 542.683 373.979L548.924 346.65L548.932 346.621L548.968 346.461V346.454L554.971 314.119L555 313.966L551.811 278.903C551.796 278.743 551.746 278.59 551.674 278.459L545.8 260.225L535.886 231.295L519.247 203.806L497.059 179.809L470.78 160.848L442.12 148.166H442.105L442.033 148.129L425.957 142.716L425.863 142.694C425.848 142.694 425.834 142.68 425.812 142.68L390.492 136L356.861 138.467L330.271 144.244L330.17 144.28C330.148 144.288 330.127 144.287 330.105 144.295L297.577 156.912L297.303 157.013V157.021L297.137 157.086L296.603 157.53L273.189 174.614C273.182 174.614 273.182 174.614 273.182 174.622L261.139 184.706L246.022 197.367L245.993 197.389L245.849 197.629L230.48 223.124L212.802 252.694L212.708 252.847L204.619 288.405L204.583 288.558L204.59 288.667L202 312.831L204.013 347.473L204.02 347.611L215.183 382.885L234.845 416.428L237.768 420.736L259.357 444.31L285.224 462.792L293.443 468.35Z" fill="url(#paint0_linear_1475_965)"/>
<g filter="url(#filter1_d_1475_965)">
<ellipse cx="378" cy="312" rx="118.704" ry="243.335" transform="rotate(-45 378 312)" stroke="url(#paint1_linear_1475_965)" stroke-width="2" shape-rendering="crispEdges"/>
</g>
<g filter="url(#filter2_d_1475_965)">
<ellipse cx="385.941" cy="347.098" rx="86.5749" ry="216.161" transform="rotate(-105 385.941 347.098)" stroke="url(#paint2_linear_1475_965)" stroke-width="2" shape-rendering="crispEdges"/>
</g>
<defs>
<filter id="filter0_f_1475_965" x="-202" y="-268" width="1160" height="1160" filterUnits="userSpaceOnUse" color-interpolation-filters="sRGB">
<feFlood flood-opacity="0" result="BackgroundImageFix"/>
<feBlend mode="normal" in="SourceGraphic" in2="BackgroundImageFix" result="shape"/>
<feGaussianBlur stdDeviation="200" result="effect1_foregroundBlur_1475_965"/>
</filter>
<filter id="filter1_d_1475_965" x="177.512" y="111.512" width="400.977" height="400.977" filterUnits="userSpaceOnUse" color-interpolation-filters="sRGB">
<feFlood flood-opacity="0" result="BackgroundImageFix"/>
<feColorMatrix in="SourceAlpha" type="matrix" values="0 0 0 0 0 0 0 0 0 0 0 0 0 0 0 0 0 0 127 0" result="hardAlpha"/>
<feOffset/>
<feGaussianBlur stdDeviation="4"/>
<feComposite in2="hardAlpha" operator="out"/>
<feColorMatrix type="matrix" values="0 0 0 0 0.654902 0 0 0 0 0.545098 0 0 0 0 0.980392 0 0 0 0.8 0"/>
<feBlend mode="normal" in2="BackgroundImageFix" result="effect1_dropShadow_1475_965"/>
<feBlend mode="normal" in="SourceGraphic" in2="effect1_dropShadow_1475_965" result="shape"/>
</filter>
<filter id="filter2_d_1475_965" x="166.928" y="237.475" width="438.027" height="219.248" filterUnits="userSpaceOnUse" color-interpolation-filters="sRGB">
<feFlood flood-opacity="0" result="BackgroundImageFix"/>
<feColorMatrix in="SourceAlpha" type="matrix" values="0 0 0 0 0 0 0 0 0 0 0 0 0 0 0 0 0 0 127 0" result="hardAlpha"/>
<feOffset/>
<feGaussianBlur stdDeviation="4"/>
<feComposite in2="hardAlpha" operator="out"/>
<feColorMatrix type="matrix" values="0 0 0 0 0.654902 0 0 0 0 0.545098 0 0 0 0 0.980392 0 0 0 0.8 0"/>
<feBlend mode="normal" in2="BackgroundImageFix" result="effect1_dropShadow_1475_965"/>
<feBlend mode="normal" in="SourceGraphic" in2="effect1_dropShadow_1475_965" result="shape"/>
</filter>
<linearGradient id="paint0_linear_1475_965" x1="378.5" y1="136" x2="378.5" y2="489" gradientUnits="userSpaceOnUse">
<stop stop-color="#C440DB" stop-opacity="0.8"/>
<stop offset="1" stop-color="#4F46E5" stop-opacity="0"/>
</linearGradient>
<linearGradient id="paint1_linear_1475_965" x1="443.407" y1="130.627" x2="309.057" y2="192.145" gradientUnits="userSpaceOnUse">
<stop stop-color="#09090B"/>
<stop offset="1" stop-color="#A78BFA" stop-opacity="0"/>
</linearGradient>
<linearGradient id="paint2_linear_1475_965" x1="467.488" y1="255.647" x2="331.085" y2="243.891" gradientUnits="userSpaceOnUse">
<stop stop-color="#09090B" stop-opacity="0.7"/>
<stop offset="0.395" stop-color="#A78BFA" stop-opacity="0.1"/>
<stop offset="1" stop-color="#A78BFA" stop-opacity="0"/>
</linearGradient>
</defs>
</svg>
