<svg width="42" height="41" viewBox="0 0 42 41" fill="none" xmlns="http://www.w3.org/2000/svg">
<path fill-rule="evenodd" clip-rule="evenodd" d="M12.0193 0C5.76419 0 0.693359 5.16656 0.693359 11.5397V29.2338C0.693359 35.6069 5.76419 40.7735 12.0193 40.7735H30.1409C36.396 40.7735 41.4669 35.6069 41.4669 29.2338V11.5397C41.4669 5.16656 36.396 0 30.1409 0H12.0193ZM28.6308 19.439C29.6375 20.031 29.6375 21.5118 28.6308 22.1038L16.1722 29.4325C15.1654 30.0249 13.907 29.2845 13.907 28.1001V13.4427C13.907 12.2583 15.1654 11.5179 16.1722 12.1103L28.6308 19.439Z" fill="url(#paint0_linear_590_1221)"/>
<defs>
<linearGradient id="paint0_linear_590_1221" x1="6.37137" y1="-39.924" x2="-27.3819" y2="-16.4845" gradientUnits="userSpaceOnUse">
<stop stop-color="#8A38EE"/>
<stop offset="1" stop-color="#D64FED"/>
</linearGradient>
</defs>
</svg>
