<svg width="42" height="41" viewBox="0 0 42 41" fill="none" xmlns="http://www.w3.org/2000/svg">
<path fill-rule="evenodd" clip-rule="evenodd" d="M9.78924 0H31.9232C34.3928 0.00763484 36.759 0.99242 38.5048 2.73918C40.2506 4.48595 41.2341 6.85268 41.2403 9.32226V31.4558C41.2331 33.9246 40.2491 36.2903 38.5034 38.0361C36.7577 39.782 34.3921 40.7661 31.9232 40.7735H9.78924C7.31948 40.7673 4.95258 39.7837 3.20576 38.0378C1.45895 36.2919 0.474231 33.9255 0.466797 31.4558V9.32226C0.473426 6.85188 1.45774 4.48458 3.2046 2.73775C4.95146 0.990922 7.31881 0.00662923 9.78924 0ZM21.4668 29C26.4374 29 30.4668 24.9706 30.4668 20C30.4668 15.0294 26.4374 11 21.4668 11C16.4962 11 12.4668 15.0294 12.4668 20C12.4668 24.9706 16.4962 29 21.4668 29Z" fill="url(#paint0_linear_590_1222)"/>
<defs>
<linearGradient id="paint0_linear_590_1222" x1="6.1448" y1="-39.924" x2="-27.6084" y2="-16.4844" gradientUnits="userSpaceOnUse">
<stop stop-color="#8A38EE"/>
<stop offset="1" stop-color="#D64FED"/>
</linearGradient>
</defs>
</svg>
