<svg width="255" height="37" viewBox="0 0 255 37" fill="none" xmlns="http://www.w3.org/2000/svg">
<rect x="0.5" y="0.5" width="82" height="36" rx="18" stroke="white" stroke-opacity="0.5"/>
<path d="M21.248 27.288C20.016 27.288 18.936 27.072 18.008 26.64C17.08 26.192 16.36 25.568 15.848 24.768C15.336 23.968 15.08 23.032 15.08 21.96H17.6C17.616 22.568 17.76 23.128 18.032 23.64C18.32 24.136 18.728 24.536 19.256 24.84C19.8 25.128 20.464 25.272 21.248 25.272C21.92 25.272 22.496 25.16 22.976 24.936C23.472 24.712 23.848 24.408 24.104 24.024C24.36 23.624 24.488 23.168 24.488 22.656C24.488 22.064 24.352 21.576 24.08 21.192C23.808 20.808 23.44 20.496 22.976 20.256C22.528 20 22 19.776 21.392 19.584C20.8 19.392 20.176 19.184 19.52 18.96C18.192 18.528 17.2 17.968 16.544 17.28C15.904 16.592 15.584 15.696 15.584 14.592C15.584 13.648 15.808 12.832 16.256 12.144C16.704 11.44 17.328 10.896 18.128 10.512C18.944 10.112 19.904 9.912 21.008 9.912C22.096 9.912 23.048 10.112 23.864 10.512C24.68 10.912 25.32 11.464 25.784 12.168C26.248 12.872 26.48 13.696 26.48 14.64H23.936C23.936 14.208 23.824 13.784 23.6 13.368C23.376 12.952 23.04 12.616 22.592 12.36C22.144 12.088 21.592 11.952 20.936 11.952C20.392 11.936 19.904 12.024 19.472 12.216C19.04 12.408 18.704 12.688 18.464 13.056C18.224 13.424 18.104 13.864 18.104 14.376C18.104 14.888 18.208 15.304 18.416 15.624C18.64 15.928 18.96 16.192 19.376 16.416C19.792 16.64 20.272 16.848 20.816 17.04C21.376 17.216 21.992 17.416 22.664 17.64C23.496 17.912 24.232 18.248 24.872 18.648C25.528 19.032 26.04 19.536 26.408 20.16C26.792 20.768 26.984 21.552 26.984 22.512C26.984 23.344 26.768 24.12 26.336 24.84C25.904 25.56 25.264 26.152 24.416 26.616C23.568 27.064 22.512 27.288 21.248 27.288ZM33.7259 27.288C32.7339 27.288 31.9099 27.12 31.2539 26.784C30.5979 26.448 30.1099 26 29.7899 25.44C29.4699 24.864 29.3099 24.248 29.3099 23.592C29.3099 22.792 29.5179 22.112 29.9339 21.552C30.3499 20.976 30.9419 20.536 31.7099 20.232C32.4779 19.928 33.3979 19.776 34.4699 19.776H37.6139C37.6139 19.072 37.5099 18.488 37.3019 18.024C37.0939 17.56 36.7819 17.216 36.3659 16.992C35.9659 16.752 35.4539 16.632 34.8299 16.632C34.1099 16.632 33.4939 16.808 32.9819 17.16C32.4699 17.496 32.1499 18 32.0219 18.672H29.6219C29.7179 17.824 30.0059 17.104 30.4859 16.512C30.9819 15.904 31.6139 15.44 32.3819 15.12C33.1499 14.784 33.9659 14.616 34.8299 14.616C35.9659 14.616 36.9179 14.816 37.6859 15.216C38.4539 15.616 39.0299 16.184 39.4139 16.92C39.8139 17.64 40.0139 18.504 40.0139 19.512V27H37.9259L37.7339 24.96C37.5579 25.28 37.3499 25.584 37.1099 25.872C36.8699 26.16 36.5819 26.408 36.2459 26.616C35.9259 26.824 35.5499 26.984 35.1179 27.096C34.7019 27.224 34.2379 27.288 33.7259 27.288ZM34.1819 25.344C34.6939 25.344 35.1579 25.24 35.5739 25.032C35.9899 24.824 36.3419 24.544 36.6299 24.192C36.9339 23.824 37.1579 23.416 37.3019 22.968C37.4619 22.504 37.5499 22.032 37.5659 21.552V21.48H34.7099C34.0219 21.48 33.4619 21.568 33.0299 21.744C32.6139 21.904 32.3099 22.128 32.1179 22.416C31.9259 22.704 31.8299 23.04 31.8299 23.424C31.8299 23.824 31.9179 24.168 32.0939 24.456C32.2859 24.728 32.5579 24.944 32.9099 25.104C33.2619 25.264 33.6859 25.344 34.1819 25.344ZM47.0853 27.288C46.0933 27.288 45.2693 27.12 44.6133 26.784C43.9573 26.448 43.4693 26 43.1493 25.44C42.8293 24.864 42.6693 24.248 42.6693 23.592C42.6693 22.792 42.8773 22.112 43.2933 21.552C43.7093 20.976 44.3013 20.536 45.0693 20.232C45.8373 19.928 46.7573 19.776 47.8293 19.776H50.9733C50.9733 19.072 50.8693 18.488 50.6613 18.024C50.4533 17.56 50.1413 17.216 49.7253 16.992C49.3253 16.752 48.8133 16.632 48.1893 16.632C47.4693 16.632 46.8533 16.808 46.3413 17.16C45.8293 17.496 45.5093 18 45.3813 18.672H42.9813C43.0773 17.824 43.3653 17.104 43.8453 16.512C44.3413 15.904 44.9733 15.44 45.7413 15.12C46.5093 14.784 47.3253 14.616 48.1893 14.616C49.3253 14.616 50.2773 14.816 51.0453 15.216C51.8133 15.616 52.3893 16.184 52.7733 16.92C53.1733 17.64 53.3733 18.504 53.3733 19.512V27H51.2853L51.0933 24.96C50.9173 25.28 50.7093 25.584 50.4693 25.872C50.2293 26.16 49.9413 26.408 49.6053 26.616C49.2853 26.824 48.9093 26.984 48.4773 27.096C48.0613 27.224 47.5973 27.288 47.0853 27.288ZM47.5413 25.344C48.0533 25.344 48.5173 25.24 48.9333 25.032C49.3493 24.824 49.7013 24.544 49.9893 24.192C50.2933 23.824 50.5173 23.416 50.6613 22.968C50.8213 22.504 50.9093 22.032 50.9253 21.552V21.48H48.0693C47.3813 21.48 46.8213 21.568 46.3893 21.744C45.9733 21.904 45.6693 22.128 45.4773 22.416C45.2853 22.704 45.1893 23.04 45.1893 23.424C45.1893 23.824 45.2773 24.168 45.4533 24.456C45.6453 24.728 45.9173 24.944 46.2693 25.104C46.6213 25.264 47.0453 25.344 47.5413 25.344ZM62.0527 27.288C60.8207 27.288 59.7407 27.072 58.8127 26.64C57.8847 26.192 57.1647 25.568 56.6527 24.768C56.1407 23.968 55.8847 23.032 55.8847 21.96H58.4047C58.4207 22.568 58.5647 23.128 58.8367 23.64C59.1247 24.136 59.5327 24.536 60.0607 24.84C60.6047 25.128 61.2687 25.272 62.0527 25.272C62.7247 25.272 63.3007 25.16 63.7807 24.936C64.2767 24.712 64.6527 24.408 64.9087 24.024C65.1647 23.624 65.2927 23.168 65.2927 22.656C65.2927 22.064 65.1567 21.576 64.8847 21.192C64.6127 20.808 64.2447 20.496 63.7807 20.256C63.3327 20 62.8047 19.776 62.1967 19.584C61.6047 19.392 60.9807 19.184 60.3247 18.96C58.9967 18.528 58.0047 17.968 57.3487 17.28C56.7087 16.592 56.3887 15.696 56.3887 14.592C56.3887 13.648 56.6127 12.832 57.0607 12.144C57.5087 11.44 58.1327 10.896 58.9327 10.512C59.7487 10.112 60.7087 9.912 61.8127 9.912C62.9007 9.912 63.8527 10.112 64.6687 10.512C65.4847 10.912 66.1247 11.464 66.5887 12.168C67.0527 12.872 67.2847 13.696 67.2847 14.64H64.7407C64.7407 14.208 64.6287 13.784 64.4047 13.368C64.1807 12.952 63.8447 12.616 63.3967 12.36C62.9487 12.088 62.3967 11.952 61.7407 11.952C61.1967 11.936 60.7087 12.024 60.2767 12.216C59.8447 12.408 59.5087 12.688 59.2687 13.056C59.0287 13.424 58.9087 13.864 58.9087 14.376C58.9087 14.888 59.0127 15.304 59.2207 15.624C59.4447 15.928 59.7647 16.192 60.1807 16.416C60.5967 16.64 61.0767 16.848 61.6207 17.04C62.1807 17.216 62.7967 17.416 63.4687 17.64C64.3007 17.912 65.0367 18.248 65.6767 18.648C66.3327 19.032 66.8447 19.536 67.2127 20.16C67.5967 20.768 67.7887 21.552 67.7887 22.512C67.7887 23.344 67.5727 24.12 67.1407 24.84C66.7087 25.56 66.0687 26.152 65.2207 26.616C64.3727 27.064 63.3167 27.288 62.0527 27.288Z" fill="white" fill-opacity="0.5"/>
<rect x="83.5" y="0.5" width="120" height="36" rx="18" stroke="white" stroke-opacity="0.5"/>
<path d="M102.184 27L97.624 10.2H100.192L103.6 24.192L107.512 10.2H110.176L113.968 24.24L117.424 10.2H119.992L115.36 27H112.552L108.784 13.632L104.92 27H102.184ZM126.487 27.288C125.335 27.288 124.311 27.024 123.415 26.496C122.519 25.968 121.815 25.232 121.303 24.288C120.807 23.344 120.559 22.248 120.559 21C120.559 19.72 120.807 18.608 121.303 17.664C121.815 16.704 122.519 15.96 123.415 15.432C124.311 14.888 125.351 14.616 126.535 14.616C127.719 14.616 128.735 14.88 129.583 15.408C130.431 15.936 131.087 16.64 131.551 17.52C132.015 18.384 132.247 19.344 132.247 20.4C132.247 20.56 132.239 20.736 132.223 20.928C132.223 21.104 132.215 21.304 132.199 21.528H122.311V19.824H129.847C129.799 18.816 129.463 18.032 128.839 17.472C128.215 16.896 127.439 16.608 126.511 16.608C125.855 16.608 125.255 16.76 124.711 17.064C124.167 17.352 123.727 17.784 123.391 18.36C123.071 18.92 122.911 19.632 122.911 20.496V21.168C122.911 22.064 123.071 22.824 123.391 23.448C123.727 24.056 124.167 24.52 124.711 24.84C125.255 25.144 125.847 25.296 126.487 25.296C127.255 25.296 127.887 25.128 128.383 24.792C128.879 24.456 129.247 24 129.487 23.424H131.887C131.679 24.16 131.327 24.824 130.831 25.416C130.335 25.992 129.719 26.448 128.983 26.784C128.263 27.12 127.431 27.288 126.487 27.288ZM141.513 27.288C140.857 27.288 140.257 27.192 139.713 27C139.185 26.824 138.721 26.576 138.321 26.256C137.921 25.936 137.585 25.568 137.313 25.152L137.073 27H134.913V9.72H137.313V16.8C137.697 16.192 138.233 15.68 138.921 15.264C139.625 14.832 140.489 14.616 141.513 14.616C142.665 14.616 143.681 14.896 144.561 15.456C145.441 16 146.121 16.752 146.601 17.712C147.097 18.656 147.345 19.744 147.345 20.976C147.345 22.176 147.097 23.256 146.601 24.216C146.121 25.176 145.441 25.928 144.561 26.472C143.681 27.016 142.665 27.288 141.513 27.288ZM141.129 25.2C141.865 25.2 142.513 25.024 143.073 24.672C143.649 24.32 144.097 23.824 144.417 23.184C144.753 22.544 144.921 21.8 144.921 20.952C144.921 20.104 144.753 19.368 144.417 18.744C144.097 18.104 143.649 17.608 143.073 17.256C142.513 16.888 141.865 16.704 141.129 16.704C140.377 16.704 139.713 16.888 139.137 17.256C138.577 17.608 138.137 18.104 137.817 18.744C137.497 19.368 137.337 20.104 137.337 20.952C137.337 21.8 137.497 22.544 137.817 23.184C138.137 23.824 138.577 24.32 139.137 24.672C139.713 25.024 140.377 25.2 141.129 25.2ZM161.736 27.288C160.664 27.288 159.68 27.096 158.784 26.712C157.904 26.312 157.2 25.72 156.672 24.936C156.16 24.136 155.888 23.136 155.856 21.936H158.256C158.272 22.544 158.416 23.096 158.688 23.592C158.96 24.088 159.352 24.488 159.864 24.792C160.392 25.08 161.016 25.224 161.736 25.224C162.456 25.224 163.056 25.088 163.536 24.816C164.032 24.544 164.4 24.176 164.64 23.712C164.896 23.248 165.024 22.728 165.024 22.152C165.024 21.432 164.848 20.848 164.496 20.4C164.16 19.952 163.696 19.616 163.104 19.392C162.528 19.168 161.88 19.056 161.16 19.056H159.912V17.04H161.16C162.168 17.04 162.968 16.808 163.56 16.344C164.168 15.88 164.472 15.224 164.472 14.376C164.472 13.672 164.24 13.096 163.776 12.648C163.312 12.2 162.632 11.976 161.736 11.976C160.84 11.976 160.128 12.232 159.6 12.744C159.088 13.256 158.8 13.904 158.736 14.688H156.36C156.408 13.744 156.656 12.912 157.104 12.192C157.568 11.456 158.192 10.896 158.976 10.512C159.776 10.112 160.696 9.912 161.736 9.912C162.856 9.912 163.792 10.112 164.544 10.512C165.312 10.896 165.888 11.416 166.272 12.072C166.672 12.728 166.872 13.448 166.872 14.232C166.872 14.824 166.76 15.376 166.536 15.888C166.312 16.384 165.992 16.816 165.576 17.184C165.16 17.552 164.656 17.816 164.064 17.976C164.704 18.104 165.28 18.352 165.792 18.72C166.304 19.088 166.704 19.568 166.992 20.16C167.28 20.736 167.424 21.408 167.424 22.176C167.424 23.088 167.208 23.936 166.776 24.72C166.344 25.488 165.704 26.112 164.856 26.592C164.024 27.056 162.984 27.288 161.736 27.288ZM171.498 27.12C171.034 27.12 170.65 26.976 170.346 26.688C170.058 26.384 169.914 26.024 169.914 25.608C169.914 25.176 170.058 24.816 170.346 24.528C170.65 24.224 171.034 24.072 171.498 24.072C171.962 24.072 172.338 24.224 172.626 24.528C172.914 24.816 173.058 25.176 173.058 25.608C173.058 26.024 172.914 26.384 172.626 26.688C172.338 26.976 171.962 27.12 171.498 27.12ZM181.406 27.288C179.918 27.288 178.638 26.928 177.566 26.208C176.494 25.472 175.67 24.456 175.094 23.16C174.518 21.848 174.23 20.328 174.23 18.6C174.23 16.872 174.518 15.36 175.094 14.064C175.67 12.752 176.494 11.736 177.566 11.016C178.638 10.28 179.918 9.912 181.406 9.912C182.894 9.912 184.166 10.28 185.222 11.016C186.294 11.736 187.11 12.752 187.67 14.064C188.246 15.36 188.534 16.872 188.534 18.6C188.534 20.328 188.246 21.848 187.67 23.16C187.11 24.456 186.294 25.472 185.222 26.208C184.166 26.928 182.894 27.288 181.406 27.288ZM181.406 25.152C182.302 25.152 183.102 24.888 183.806 24.36C184.526 23.832 185.086 23.08 185.486 22.104C185.886 21.128 186.086 19.96 186.086 18.6C186.086 17.24 185.886 16.072 185.486 15.096C185.086 14.12 184.526 13.376 183.806 12.864C183.102 12.336 182.302 12.072 181.406 12.072C180.494 12.072 179.678 12.336 178.958 12.864C178.238 13.376 177.678 14.12 177.278 15.096C176.878 16.072 176.678 17.24 176.678 18.6C176.678 19.96 176.878 21.128 177.278 22.104C177.678 23.08 178.238 23.832 178.958 24.36C179.678 24.888 180.494 25.152 181.406 25.152Z" fill="white" fill-opacity="0.5"/>
<rect x="204.5" y="0.5" width="50" height="36" rx="18" stroke="white" stroke-opacity="0.5"/>
<path d="M218.672 27L224.84 10.2H227.456L233.624 27H231.056L226.136 13.08L221.192 27H218.672ZM221.456 22.848L222.128 20.928H230.024L230.696 22.848H221.456ZM236.018 27V10.2H238.418V27H236.018Z" fill="white" fill-opacity="0.5"/>
</svg>
