<svg width="33" height="32" viewBox="0 0 33 32" fill="none" xmlns="http://www.w3.org/2000/svg">
<path d="M17.0974 31.5841C16.8922 32.1386 16.1078 32.1386 15.9026 31.5841L11.9565 20.9199C11.892 20.7455 11.7545 20.608 11.5802 20.5435L0.915928 16.5974C0.361359 16.3922 0.361359 15.6078 0.915928 15.4026L11.5802 11.4565C11.7545 11.392 11.892 11.2545 11.9565 11.0801L15.9026 0.415924C16.1078 -0.138645 16.8922 -0.138645 17.0974 0.415924L21.0435 11.0801C21.108 11.2545 21.2455 11.392 21.4199 11.4565L32.0841 15.4026C32.6386 15.6078 32.6386 16.3922 32.0841 16.5974L21.4199 20.5435C21.2455 20.608 21.108 20.7455 21.0435 20.9199L17.0974 31.5841Z" fill="url(#paint0_linear_571_2343)"/>
<defs>
<linearGradient id="paint0_linear_571_2343" x1="12.5" y1="23" x2="12.5" y2="-9" gradientUnits="userSpaceOnUse">
<stop stop-color="#8A38EE"/>
<stop offset="1" stop-color="#D64FED"/>
</linearGradient>
</defs>
</svg>
