<svg width="878" height="316" viewBox="0 0 878 316" fill="none" xmlns="http://www.w3.org/2000/svg">
<rect x="214.5" y="112.379" width="449" height="63" rx="15.5" fill="url(#paint0_linear_1486_1222)" fill-opacity="0.1"/>
<rect x="214.5" y="112.379" width="449" height="63" rx="15.5" stroke="url(#paint1_linear_1486_1222)"/>
<g opacity="0.3">
<path fill-rule="evenodd" clip-rule="evenodd" d="M250.145 132.13C250.097 132.129 250.048 132.129 250 132.129C249.951 132.129 249.903 132.129 249.854 132.13C248.655 134.159 247.778 136.351 247.246 138.629H252.754C252.222 136.351 251.345 134.159 250.145 132.13ZM253.129 140.629H246.871C246.718 141.702 246.641 142.788 246.641 143.879C246.641 144.97 246.718 146.056 246.871 147.129H253.129C253.282 146.056 253.359 144.97 253.359 143.879C253.359 142.788 253.282 141.702 253.129 140.629ZM255.147 147.129C255.288 146.055 255.359 144.97 255.359 143.879C255.359 142.788 255.288 141.703 255.147 140.629H261.292C261.593 141.676 261.75 142.77 261.75 143.879C261.75 144.981 261.595 146.075 261.292 147.129H255.147ZM252.754 149.129H247.246C247.778 151.407 248.655 153.599 249.854 155.628C249.903 155.629 249.951 155.629 250 155.629C250.048 155.629 250.097 155.629 250.145 155.628C251.345 153.599 252.222 151.407 252.754 149.129ZM252.587 155.341C253.598 153.373 254.342 151.284 254.803 149.129H260.512C259.948 150.259 259.204 151.292 258.309 152.188C257.217 153.279 255.922 154.144 254.497 154.735C253.877 154.991 253.238 155.194 252.587 155.341ZM250.556 157.618C250.693 157.639 250.833 157.63 250.965 157.595C252.441 157.491 253.892 157.15 255.262 156.582C256.93 155.891 258.446 154.879 259.723 153.602C261 152.325 262.012 150.809 262.703 149.141C263.394 147.473 263.75 145.685 263.75 143.879C263.75 140.232 262.301 136.735 259.723 134.156C257.373 131.806 254.259 130.395 250.965 130.163C250.833 130.128 250.693 130.119 250.556 130.14C250.371 130.133 250.186 130.129 250 130.129C249.814 130.129 249.629 130.133 249.444 130.14C249.306 130.119 249.167 130.128 249.034 130.163C245.74 130.395 242.627 131.806 240.277 134.156C237.699 136.735 236.25 140.232 236.25 143.879C236.25 145.685 236.606 147.473 237.297 149.141C237.988 150.809 239 152.325 240.277 153.602C241.554 154.879 243.07 155.891 244.738 156.582C246.108 157.15 247.559 157.491 249.034 157.595C249.167 157.63 249.306 157.639 249.444 157.618C249.629 157.625 249.814 157.629 250 157.629C250.186 157.629 250.371 157.625 250.556 157.618ZM252.587 132.417C254.737 132.903 256.725 133.987 258.309 135.571C259.211 136.473 259.952 137.508 260.512 138.629H254.803C254.342 136.474 253.598 134.385 252.587 132.417ZM247.412 155.341C246.401 153.373 245.657 151.284 245.196 149.129H239.488C240.052 150.259 240.796 151.292 241.691 152.188C242.783 153.279 244.078 154.144 245.503 154.735C246.123 154.991 246.762 155.194 247.412 155.341ZM244.641 143.879C244.641 142.788 244.712 141.703 244.852 140.629H238.708C238.407 141.676 238.25 142.77 238.25 143.879C238.25 144.981 238.405 146.075 238.708 147.129H244.852C244.712 146.055 244.641 144.97 244.641 143.879ZM245.196 138.629C245.657 136.475 246.401 134.385 247.412 132.417C245.263 132.903 243.275 133.988 241.691 135.571C240.789 136.473 240.048 137.508 239.488 138.629H245.196Z" fill="url(#paint2_linear_1486_1222)"/>
</g>
<path d="M280.805 150.379L277.648 140.015H279.321L281.561 147.95H281.669L283.882 140.015H285.582L287.768 147.923H287.876L290.116 140.015H291.79L288.632 150.379H287.067L284.8 142.417H284.638L282.371 150.379H280.805ZM296.243 150.379L293.085 140.015H294.759L296.999 147.95H297.107L299.32 140.015H301.02L303.206 147.923H303.314L305.554 140.015H307.227L304.07 150.379H302.504L300.237 142.417H300.075L297.808 150.379H296.243ZM311.68 150.379L308.523 140.015H310.196L312.436 147.95H312.544L314.757 140.015H316.457L318.643 147.923H318.751L320.991 140.015H322.665L319.507 150.379H317.942L315.675 142.417H315.513L313.246 150.379H311.68ZM324.52 150.487C324.187 150.487 323.902 150.368 323.663 150.129C323.425 149.891 323.306 149.605 323.306 149.272C323.306 148.94 323.425 148.654 323.663 148.415C323.902 148.177 324.187 148.058 324.52 148.058C324.853 148.058 325.139 148.177 325.377 148.415C325.616 148.654 325.735 148.94 325.735 149.272C325.735 149.493 325.679 149.695 325.566 149.88C325.458 150.064 325.312 150.212 325.127 150.325C324.948 150.433 324.745 150.487 324.52 150.487ZM330.184 144.145V150.379H328.592V140.015H330.131V141.635H330.265C330.508 141.108 330.877 140.685 331.372 140.366C331.867 140.042 332.506 139.88 333.288 139.88C333.99 139.88 334.604 140.024 335.13 140.312C335.656 140.596 336.066 141.027 336.358 141.608C336.651 142.183 336.797 142.912 336.797 143.794V150.379H335.204V143.902C335.204 143.087 334.993 142.453 334.57 141.999C334.147 141.54 333.567 141.311 332.829 141.311C332.321 141.311 331.867 141.421 331.466 141.641C331.071 141.862 330.758 142.183 330.529 142.606C330.299 143.029 330.184 143.542 330.184 144.145ZM343.917 150.595C342.981 150.595 342.16 150.372 341.454 149.927C340.752 149.482 340.203 148.859 339.808 148.058C339.416 147.257 339.221 146.322 339.221 145.251C339.221 144.172 339.416 143.229 339.808 142.424C340.203 141.619 340.752 140.994 341.454 140.548C342.16 140.103 342.981 139.88 343.917 139.88C344.852 139.88 345.671 140.103 346.373 140.548C347.079 140.994 347.628 141.619 348.019 142.424C348.415 143.229 348.613 144.172 348.613 145.251C348.613 146.322 348.415 147.257 348.019 148.058C347.628 148.859 347.079 149.482 346.373 149.927C345.671 150.372 344.852 150.595 343.917 150.595ZM343.917 149.164C344.627 149.164 345.212 148.982 345.671 148.618C346.13 148.254 346.469 147.775 346.69 147.181C346.91 146.587 347.02 145.944 347.02 145.251C347.02 144.558 346.91 143.913 346.69 143.315C346.469 142.716 346.13 142.233 345.671 141.864C345.212 141.495 344.627 141.311 343.917 141.311C343.206 141.311 342.621 141.495 342.162 141.864C341.704 142.233 341.364 142.716 341.144 143.315C340.923 143.913 340.813 144.558 340.813 145.251C340.813 145.944 340.923 146.587 341.144 147.181C341.364 147.775 341.704 148.254 342.162 148.618C342.621 148.982 343.206 149.164 343.917 149.164ZM354.957 150.595C354.093 150.595 353.331 150.377 352.669 149.94C352.008 149.5 351.491 148.879 351.118 148.078C350.744 147.273 350.558 146.322 350.558 145.224C350.558 144.136 350.744 143.191 351.118 142.39C351.491 141.59 352.01 140.971 352.676 140.535C353.342 140.098 354.111 139.88 354.984 139.88C355.658 139.88 356.191 139.993 356.583 140.218C356.979 140.438 357.28 140.69 357.487 140.973C357.698 141.252 357.862 141.482 357.979 141.662H358.114V136.561H359.707V150.379H358.168V148.787H357.979C357.862 148.975 357.696 149.214 357.48 149.502C357.264 149.785 356.956 150.039 356.556 150.264C356.155 150.485 355.622 150.595 354.957 150.595ZM355.173 149.164C355.811 149.164 356.351 148.998 356.792 148.665C357.233 148.328 357.568 147.862 357.797 147.268C358.027 146.67 358.141 145.98 358.141 145.197C358.141 144.423 358.029 143.746 357.804 143.166C357.579 142.581 357.246 142.127 356.805 141.803C356.365 141.475 355.82 141.311 355.173 141.311C354.498 141.311 353.936 141.484 353.486 141.83C353.04 142.172 352.705 142.638 352.48 143.227C352.26 143.812 352.15 144.468 352.15 145.197C352.15 145.935 352.262 146.605 352.487 147.208C352.717 147.806 353.054 148.283 353.499 148.638C353.949 148.989 354.507 149.164 355.173 149.164ZM367.189 150.595C366.191 150.595 365.329 150.374 364.605 149.934C363.885 149.488 363.33 148.868 362.939 148.071C362.552 147.271 362.358 146.34 362.358 145.278C362.358 144.217 362.552 143.281 362.939 142.471C363.33 141.657 363.874 141.023 364.571 140.569C365.273 140.11 366.092 139.88 367.027 139.88C367.567 139.88 368.1 139.97 368.626 140.15C369.153 140.33 369.632 140.623 370.064 141.027C370.495 141.428 370.839 141.958 371.096 142.62C371.352 143.281 371.48 144.095 371.48 145.062V145.737H363.492V144.36H369.861C369.861 143.776 369.744 143.254 369.51 142.795C369.281 142.336 368.953 141.974 368.525 141.709C368.102 141.443 367.603 141.311 367.027 141.311C366.393 141.311 365.844 141.468 365.381 141.783C364.922 142.093 364.569 142.498 364.322 142.998C364.074 143.497 363.951 144.032 363.951 144.603V145.521C363.951 146.304 364.086 146.967 364.355 147.511C364.63 148.051 365.01 148.463 365.496 148.746C365.982 149.025 366.546 149.164 367.189 149.164C367.608 149.164 367.985 149.106 368.323 148.989C368.665 148.868 368.959 148.688 369.207 148.449C369.454 148.206 369.645 147.905 369.78 147.545L371.319 147.977C371.157 148.499 370.884 148.958 370.502 149.353C370.12 149.745 369.647 150.051 369.085 150.271C368.523 150.487 367.891 150.595 367.189 150.595ZM382.062 140.015L378.229 150.379H376.61L372.778 140.015H374.505L377.366 148.274H377.474L380.334 140.015H382.062ZM386.898 150.622C386.241 150.622 385.645 150.498 385.11 150.251C384.574 149.999 384.149 149.637 383.835 149.164C383.52 148.688 383.362 148.112 383.362 147.437C383.362 146.843 383.479 146.362 383.713 145.993C383.947 145.62 384.26 145.328 384.651 145.116C385.042 144.905 385.474 144.747 385.946 144.644C386.423 144.536 386.902 144.45 387.384 144.387C388.013 144.306 388.524 144.246 388.915 144.205C389.311 144.16 389.599 144.086 389.779 143.983C389.963 143.879 390.055 143.699 390.055 143.443V143.389C390.055 142.723 389.873 142.206 389.509 141.837C389.149 141.468 388.603 141.284 387.869 141.284C387.109 141.284 386.513 141.45 386.081 141.783C385.65 142.116 385.346 142.471 385.17 142.849L383.659 142.309C383.929 141.68 384.289 141.189 384.739 140.838C385.193 140.483 385.688 140.236 386.223 140.096C386.763 139.952 387.294 139.88 387.815 139.88C388.148 139.88 388.531 139.921 388.962 140.002C389.399 140.078 389.819 140.238 390.224 140.481C390.633 140.724 390.973 141.09 391.243 141.581C391.513 142.071 391.648 142.728 391.648 143.551V150.379H390.055V148.975H389.974C389.866 149.2 389.687 149.441 389.435 149.697C389.183 149.954 388.848 150.172 388.429 150.352C388.011 150.532 387.5 150.622 386.898 150.622ZM387.141 149.191C387.77 149.191 388.301 149.068 388.733 148.82C389.169 148.573 389.498 148.254 389.718 147.862C389.943 147.471 390.055 147.059 390.055 146.627V145.17C389.988 145.251 389.839 145.325 389.61 145.393C389.385 145.456 389.124 145.512 388.827 145.561C388.535 145.606 388.249 145.647 387.971 145.683C387.696 145.714 387.473 145.741 387.303 145.764C386.889 145.818 386.502 145.906 386.142 146.027C385.787 146.144 385.499 146.322 385.278 146.56C385.063 146.794 384.955 147.113 384.955 147.518C384.955 148.071 385.159 148.49 385.569 148.773C385.982 149.052 386.506 149.191 387.141 149.191ZM395.715 150.487C395.382 150.487 395.096 150.368 394.858 150.129C394.619 149.891 394.5 149.605 394.5 149.272C394.5 148.94 394.619 148.654 394.858 148.415C395.096 148.177 395.382 148.058 395.715 148.058C396.047 148.058 396.333 148.177 396.571 148.415C396.81 148.654 396.929 148.94 396.929 149.272C396.929 149.493 396.873 149.695 396.76 149.88C396.652 150.064 396.506 150.212 396.322 150.325C396.142 150.433 395.939 150.487 395.715 150.487ZM399.786 150.379V140.015H401.379V150.379H399.786ZM400.596 138.288C400.286 138.288 400.018 138.182 399.793 137.971C399.573 137.759 399.463 137.505 399.463 137.208C399.463 136.912 399.573 136.657 399.793 136.446C400.018 136.235 400.286 136.129 400.596 136.129C400.907 136.129 401.172 136.235 401.392 136.446C401.617 136.657 401.73 136.912 401.73 137.208C401.73 137.505 401.617 137.759 401.392 137.971C401.172 138.182 400.907 138.288 400.596 138.288ZM408.506 150.595C407.57 150.595 406.749 150.372 406.043 149.927C405.341 149.482 404.792 148.859 404.396 148.058C404.005 147.257 403.809 146.322 403.809 145.251C403.809 144.172 404.005 143.229 404.396 142.424C404.792 141.619 405.341 140.994 406.043 140.548C406.749 140.103 407.57 139.88 408.506 139.88C409.441 139.88 410.26 140.103 410.961 140.548C411.668 140.994 412.216 141.619 412.608 142.424C413.004 143.229 413.202 144.172 413.202 145.251C413.202 146.322 413.004 147.257 412.608 148.058C412.216 148.859 411.668 149.482 410.961 149.927C410.26 150.372 409.441 150.595 408.506 150.595ZM408.506 149.164C409.216 149.164 409.801 148.982 410.26 148.618C410.719 148.254 411.058 147.775 411.279 147.181C411.499 146.587 411.609 145.944 411.609 145.251C411.609 144.558 411.499 143.913 411.279 143.315C411.058 142.716 410.719 142.233 410.26 141.864C409.801 141.495 409.216 141.311 408.506 141.311C407.795 141.311 407.21 141.495 406.751 141.864C406.292 142.233 405.953 142.716 405.732 143.315C405.512 143.913 405.402 144.558 405.402 145.251C405.402 145.944 405.512 146.587 405.732 147.181C405.953 147.775 406.292 148.254 406.751 148.618C407.21 148.982 407.795 149.164 408.506 149.164Z" fill="#999999"/>
<g clip-path="url(#clip0_1486_1222)">
<path d="M605.443 187.738C605.567 188.295 605.859 188.801 606.279 189.189C606.699 189.576 607.227 189.825 607.793 189.903C608.359 189.981 608.935 189.885 609.444 189.626C609.953 189.367 610.371 188.959 610.642 188.456L615.519 181.239L626.968 192.689C627.2 192.92 627.474 193.104 627.776 193.229C628.078 193.354 628.402 193.418 628.729 193.418C629.056 193.418 629.38 193.354 629.682 193.229C629.984 193.104 630.258 192.92 630.489 192.689L632.932 190.246C633.164 190.015 633.347 189.741 633.472 189.438C633.597 189.136 633.662 188.813 633.662 188.486C633.662 188.159 633.597 187.835 633.472 187.533C633.347 187.231 633.164 186.956 632.932 186.725L621.483 175.275L628.746 170.399C629.249 170.128 629.657 169.71 629.916 169.2C630.174 168.691 630.271 168.115 630.192 167.549C630.114 166.983 629.864 166.455 629.477 166.035C629.089 165.615 628.583 165.324 628.025 165.2L596.334 156.091L605.443 187.738Z" fill="url(#paint3_linear_1486_1222)"/>
</g>
<defs>
<linearGradient id="paint0_linear_1486_1222" x1="21.1428" y1="79.0789" x2="543.406" y2="487.657" gradientUnits="userSpaceOnUse">
<stop stop-color="#8A38EE"/>
<stop offset="1" stop-color="#D64FED"/>
</linearGradient>
<linearGradient id="paint1_linear_1486_1222" x1="318.776" y1="111.879" x2="327.823" y2="191.68" gradientUnits="userSpaceOnUse">
<stop stop-color="#5A5A5A" stop-opacity="0.4"/>
<stop offset="1" stop-color="#8F8F8F" stop-opacity="0.05"/>
</linearGradient>
<linearGradient id="paint2_linear_1486_1222" x1="248.535" y1="130.129" x2="248.535" y2="157.629" gradientUnits="userSpaceOnUse">
<stop stop-color="white"/>
<stop offset="1" stop-color="#999999"/>
</linearGradient>
<linearGradient id="paint3_linear_1486_1222" x1="580.336" y1="136.96" x2="649.319" y2="144.636" gradientUnits="userSpaceOnUse">
<stop stop-color="#8A38EE"/>
<stop offset="1" stop-color="#D64FED"/>
</linearGradient>
<clipPath id="clip0_1486_1222">
<rect width="38" height="38" fill="white" transform="translate(596 156)"/>
</clipPath>
</defs>
</svg>
